STARTFONT 2.1
FONT -FontForge-Libertinus Mono-Regular-R-Normal--32-310-75-75-M-240-ISO10646-1
SIZE 31 75 75
FONTBOUNDINGBOX 24 35 0 -7
COMMENT "Generated by fontforge, http://fontforge.sourceforge.net"
COMMENT "Copyright Copyright 2012-2021 The Libertinus Project Authors."
STARTPROPERTIES 40
FOUNDRY "FontForge"
FAMILY_NAME "Libertinus Mono"
WEIGHT_NAME "Regular"
SLANT "R"
SETWIDTH_NAME "Normal"
ADD_STYLE_NAME ""
PIXEL_SIZE 32
POINT_SIZE 310
RESOLUTION_X 75
RESOLUTION_Y 75
SPACING "M"
AVERAGE_WIDTH 240
CHARSET_REGISTRY "ISO10646"
CHARSET_ENCODING "1"
FONTNAME_REGISTRY ""
CHARSET_COLLECTIONS "ISO8859-2 ISO8859-9 ISO8859-4 ISO10646-1"
FONT_NAME "LibertinusMono-Regular"
FACE_NAME "Libertinus Mono Regular"
COPYRIGHT "Copyright Copyright 2012-2021 The Libertinus Project Authors."
FONT_VERSION "5.0"
FONT_ASCENT 26
FONT_DESCENT 6
UNDERLINE_POSITION -3
UNDERLINE_THICKNESS 2
X_HEIGHT 14
CAP_HEIGHT 19
RAW_ASCENT 800
RAW_DESCENT 200
NORM_SPACE 24
RELATIVE_WEIGHT 40
RELATIVE_SETWIDTH 50
SUPERSCRIPT_X 0
SUPERSCRIPT_Y 11
SUPERSCRIPT_SIZE 19
SUBSCRIPT_X 0
SUBSCRIPT_Y 2
SUBSCRIPT_SIZE 19
FIGURE_WIDTH 24
AVG_LOWERCASE_WIDTH 240
AVG_UPPERCASE_WIDTH 240
ENDPROPERTIES
CHARS 352
STARTCHAR space
ENCODING 32
SWIDTH 750 0
DWIDTH 24 0
BBX 1 1 0 0
BITMAP
00
ENDCHAR
STARTCHAR exclam
ENCODING 33
SWIDTH 750 0
DWIDTH 24 0
BBX 3 21 10 0
BITMAP
E0
E0
E0
E0
E0
E0
E0
60
40
40
40
40
40
40
40
00
00
60
E0
E0
E0
ENDCHAR
STARTCHAR quotedbl
ENCODING 34
SWIDTH 750 0
DWIDTH 24 0
BBX 10 10 7 11
BITMAP
E1C0
F3C0
F3C0
E1C0
E1C0
E1C0
6180
6180
6180
4080
ENDCHAR
STARTCHAR numbersign
ENCODING 35
SWIDTH 750 0
DWIDTH 24 0
BBX 16 22 4 -1
BITMAP
0408
0408
0408
0C08
0C18
0C18
7FFF
7FFF
0810
0810
0810
1830
1830
1830
FFFE
FFFE
1020
1020
3060
3060
3060
3060
ENDCHAR
STARTCHAR dollar
ENCODING 36
SWIDTH 750 0
DWIDTH 24 0
BBX 14 27 5 -3
BITMAP
0180
0180
0100
0FE0
1978
3118
6118
6108
6100
7100
7900
3F00
1FC0
07F0
03F8
037C
031C
031C
831C
821C
C21C
E218
FE70
1FC0
0200
0200
0200
ENDCHAR
STARTCHAR percent
ENCODING 37
SWIDTH 750 0
DWIDTH 24 0
BBX 17 19 4 0
BITMAP
3C0200
760E00
C7FC00
C60800
C41800
843000
C42000
D86000
70C000
008000
010000
030F00
061980
043080
0C3080
183180
303100
203300
601E00
ENDCHAR
STARTCHAR ampersand
ENCODING 38
SWIDTH 750 0
DWIDTH 24 0
BBX 19 21 3 0
BITMAP
03E000
067000
0E3000
0E3000
0E3000
0E7000
066000
07C7E0
078180
0F8300
198200
31C200
60E400
E0EC00
E07800
E03800
E03800
E03C00
606E40
70C7C0
1F0380
ENDCHAR
STARTCHAR quotesingle
ENCODING 39
SWIDTH 750 0
DWIDTH 24 0
BBX 4 10 10 11
BITMAP
60
F0
F0
F0
E0
60
60
60
60
60
ENDCHAR
STARTCHAR parenleft
ENCODING 40
SWIDTH 750 0
DWIDTH 24 0
BBX 10 29 8 -6
BITMAP
00C0
0180
0300
0600
0C00
1C00
3800
3800
7000
7000
7000
E000
E000
E000
E000
E000
E000
E000
7000
7000
7000
3800
3800
1C00
0C00
0600
0300
0180
00C0
ENDCHAR
STARTCHAR parenright
ENCODING 41
SWIDTH 750 0
DWIDTH 24 0
BBX 10 29 6 -7
BITMAP
C000
7000
3800
1C00
0C00
0E00
0700
0700
0380
0380
0380
01C0
01C0
01C0
01C0
01C0
01C0
0380
0380
0380
0300
0700
0600
0E00
1C00
3800
7000
C000
8000
ENDCHAR
STARTCHAR asterisk
ENCODING 42
SWIDTH 750 0
DWIDTH 24 0
BBX 14 13 4 5
BITMAP
0300
0780
0380
031C
F33C
F97C
7FF0
0380
06C0
0EF0
1C70
1C70
1820
ENDCHAR
STARTCHAR plus
ENCODING 43
SWIDTH 750 0
DWIDTH 24 0
BBX 18 16 3 0
BITMAP
00C000
00C000
00C000
00C000
00C000
00C000
00C000
7FFFC0
FFFF80
00C000
00C000
00C000
00C000
00C000
00C000
00C000
ENDCHAR
STARTCHAR comma
ENCODING 44
SWIDTH 750 0
DWIDTH 24 0
BBX 5 9 9 -5
BITMAP
70
F0
F8
78
18
10
30
60
C0
ENDCHAR
STARTCHAR hyphen
ENCODING 45
SWIDTH 750 0
DWIDTH 24 0
BBX 12 2 6 7
BITMAP
FFF0
FFF0
ENDCHAR
STARTCHAR period
ENCODING 46
SWIDTH 750 0
DWIDTH 24 0
BBX 5 4 9 0
BITMAP
70
F8
F8
70
ENDCHAR
STARTCHAR slash
ENCODING 47
SWIDTH 750 0
DWIDTH 24 0
BBX 14 26 5 -3
BITMAP
000C
000C
0018
0018
0030
0030
0060
0060
00C0
00C0
0180
0180
0300
0300
0600
0600
0C00
0C00
1800
1800
3000
3000
6000
6000
C000
C000
ENDCHAR
STARTCHAR zero
ENCODING 48
SWIDTH 750 0
DWIDTH 24 0
BBX 14 21 5 0
BITMAP
0FC0
1860
3030
7038
6018
E01C
E01C
E01C
E01C
E01C
E01C
E01C
E01C
E01C
E01C
E01C
6018
7038
3030
18E0
0780
ENDCHAR
STARTCHAR one
ENCODING 49
SWIDTH 750 0
DWIDTH 24 0
BBX 12 21 6 0
BITMAP
0100
0700
1F00
7F00
E700
0700
0700
0700
0700
0700
0700
0700
0700
0700
0700
0700
0700
0700
0700
0F80
7FF0
ENDCHAR
STARTCHAR two
ENCODING 50
SWIDTH 750 0
DWIDTH 24 0
BBX 14 21 5 0
BITMAP
0FC0
18F0
2038
6038
603C
603C
0038
0038
0070
0070
00E0
0180
0300
0600
0C00
1800
300C
7008
6018
FFF8
FFF8
ENDCHAR
STARTCHAR three
ENCODING 51
SWIDTH 750 0
DWIDTH 24 0
BBX 14 21 5 0
BITMAP
1FE0
30F0
6070
E038
E038
0070
0070
01C0
0780
0FF0
0078
003C
001C
001C
001C
001C
003C
0038
E070
F1E0
3F80
ENDCHAR
STARTCHAR four
ENCODING 52
SWIDTH 750 0
DWIDTH 24 0
BBX 16 21 4 0
BITMAP
0030
0070
00F0
01F0
0370
0270
0670
0C70
1870
1070
3070
6070
4070
FFFF
FFFF
0070
0070
0070
0070
00F8
07FE
ENDCHAR
STARTCHAR five
ENCODING 53
SWIDTH 750 0
DWIDTH 24 0
BBX 14 21 5 0
BITMAP
3FF8
3FF8
3000
3000
2000
2000
6000
7FC0
7FE0
0070
0038
0038
001C
001C
001C
0018
0038
6038
F070
79E0
1F80
ENDCHAR
STARTCHAR six
ENCODING 54
SWIDTH 750 0
DWIDTH 24 0
BBX 15 21 4 0
BITMAP
0078
01C0
0700
0E00
1C00
3800
3800
7000
77F0
787C
601E
600E
E00E
600E
600E
700E
700E
300C
381C
1E78
07E0
ENDCHAR
STARTCHAR seven
ENCODING 55
SWIDTH 750 0
DWIDTH 24 0
BBX 14 21 5 0
BITMAP
401C
7FF8
FFF8
C018
C030
8030
0020
0060
0040
00C0
00C0
0180
0180
0300
0300
0700
0600
0600
0E00
0C00
1C00
ENDCHAR
STARTCHAR eight
ENCODING 56
SWIDTH 750 0
DWIDTH 24 0
BBX 14 21 5 0
BITMAP
0FE0
3870
7038
6018
6018
6038
7030
3C60
3FC0
0FC0
0FF0
3878
703C
E01C
C00C
C00C
C00C
C01C
E018
7870
1FC0
ENDCHAR
STARTCHAR nine
ENCODING 57
SWIDTH 750 0
DWIDTH 24 0
BBX 14 22 5 -1
BITMAP
0FC0
3CF0
7038
6018
E01C
E01C
E00C
E00C
E00C
E00C
F00C
7C3C
1FDC
0018
0038
0030
0070
00E0
01C0
0700
3C00
2000
ENDCHAR
STARTCHAR colon
ENCODING 58
SWIDTH 750 0
DWIDTH 24 0
BBX 4 13 10 1
BITMAP
F0
F0
F0
60
00
00
00
00
00
F0
F0
F0
60
ENDCHAR
STARTCHAR semicolon
ENCODING 59
SWIDTH 750 0
DWIDTH 24 0
BBX 5 20 9 -6
BITMAP
78
78
78
30
00
00
00
00
00
00
20
78
78
78
18
08
18
30
E0
80
ENDCHAR
STARTCHAR less
ENCODING 60
SWIDTH 750 0
DWIDTH 24 0
BBX 14 14 5 1
BITMAP
0004
001C
00F8
03E0
0F80
7C00
F000
F000
7C00
1F00
03E0
00F8
003C
0004
ENDCHAR
STARTCHAR equal
ENCODING 61
SWIDTH 750 0
DWIDTH 24 0
BBX 14 8 5 4
BITMAP
FFFC
FFFC
0000
0000
0000
0000
FFFC
FFFC
ENDCHAR
STARTCHAR greater
ENCODING 62
SWIDTH 750 0
DWIDTH 24 0
BBX 14 14 5 1
BITMAP
8000
E000
7800
1F00
07C0
00F0
003C
003C
00F8
03E0
0F00
7C00
F000
8000
ENDCHAR
STARTCHAR question
ENCODING 63
SWIDTH 750 0
DWIDTH 24 0
BBX 13 21 6 0
BITMAP
1FC0
30E0
E070
C078
C038
C038
0038
0070
00E0
01C0
0300
0600
0400
0400
0400
0000
0000
0600
0E00
0E00
0E00
ENDCHAR
STARTCHAR at
ENCODING 64
SWIDTH 750 0
DWIDTH 24 0
BBX 18 20 3 -2
BITMAP
01F000
0E1C00
180700
300300
300180
600180
60E8C0
C318C0
C618C0
C618C0
CE18C0
CE38C0
CE3980
C65180
C79300
601C00
600000
300000
1C0700
07F800
ENDCHAR
STARTCHAR A
ENCODING 65
SWIDTH 750 0
DWIDTH 24 0
BBX 20 20 2 0
BITMAP
006000
007000
00F000
00B000
01B800
01B800
011C00
031C00
021C00
020E00
060E00
07FE00
0C0700
0C0700
080380
180380
180380
3001C0
7803C0
FE0FF0
ENDCHAR
STARTCHAR B
ENCODING 66
SWIDTH 750 0
DWIDTH 24 0
BBX 17 20 3 0
BITMAP
FFF000
3E1C00
1C0E00
1C0600
1C0600
1C0600
1C0600
1C0C00
1C1800
1FF800
1C1E00
1C0700
1C0380
1C0380
1C0380
1C0380
1C0380
1C0300
3C0E00
FFFC00
ENDCHAR
STARTCHAR C
ENCODING 67
SWIDTH 750 0
DWIDTH 24 0
BBX 18 20 3 0
BITMAP
01FC00
070F80
0C0380
180180
300080
7000C0
700000
E00000
E00000
E00000
E00000
E00000
E00000
F00000
700000
780040
3800C0
1C0180
0F0E00
01F800
ENDCHAR
STARTCHAR D
ENCODING 68
SWIDTH 750 0
DWIDTH 24 0
BBX 19 20 2 0
BITMAP
FFF800
7E1E00
3C0700
1C0380
1C01C0
1C01C0
1C01C0
1C00E0
1C00E0
1C00E0
1C00E0
1C00E0
1C00E0
1C00E0
1C01C0
1C01C0
1C0380
1C0300
3E0E00
FFF800
ENDCHAR
STARTCHAR E
ENCODING 69
SWIDTH 750 0
DWIDTH 24 0
BBX 18 20 3 0
BITMAP
FFFF00
3C0300
1C0180
1C0180
1C0080
1C0000
1C0000
1C0800
1C1800
1FF800
1C1800
1C0800
1C0000
1C0000
1C0000
1C0040
1C00C0
1C00C0
3C03C0
FFFF80
ENDCHAR
STARTCHAR F
ENCODING 70
SWIDTH 750 0
DWIDTH 24 0
BBX 17 20 4 0
BITMAP
FFFF80
3E0F80
1E0380
1C0180
1C0080
1C0080
1C0000
1C0800
1C0800
1FF800
1C1800
1C0800
1C0000
1C0000
1C0000
1C0000
1C0000
1E0000
3F0000
FFC000
ENDCHAR
STARTCHAR G
ENCODING 71
SWIDTH 750 0
DWIDTH 24 0
BBX 19 20 3 0
BITMAP
01FE00
0F0F00
1C0300
380100
700180
700080
E00000
E00000
E00000
E00000
E00000
E01FE0
E00780
E00380
700380
700380
380380
1C0380
0F0700
03FC00
ENDCHAR
STARTCHAR H
ENCODING 72
SWIDTH 750 0
DWIDTH 24 0
BBX 20 20 2 0
BITMAP
FF0FF0
3E07C0
1C0380
1C0380
1C0380
1C0380
1C0380
1C0380
1C0380
1FFF80
1C0380
1C0380
1C0380
1C0380
1C0380
1C0380
1C0380
1C0380
3E07C0
FF0FF0
ENDCHAR
STARTCHAR I
ENCODING 73
SWIDTH 750 0
DWIDTH 24 0
BBX 13 20 6 0
BITMAP
FFF8
1F80
0700
0700
0700
0700
0700
0700
0700
0700
0700
0700
0700
0700
0700
0700
0700
0700
1F80
FFF8
ENDCHAR
STARTCHAR J
ENCODING 74
SWIDTH 750 0
DWIDTH 24 0
BBX 15 20 4 0
BITMAP
1FFE
01F0
00E0
00E0
00E0
00E0
00E0
00E0
00E0
00E0
00E0
00E0
00E0
00E0
00E0
00E0
01C0
E1C0
FB80
7E00
ENDCHAR
STARTCHAR K
ENCODING 75
SWIDTH 750 0
DWIDTH 24 0
BBX 19 20 3 0
BITMAP
FF0FC0
7E0780
380600
380C00
381800
383000
386000
38C000
398000
3FC000
39E000
38E000
387000
383800
383C00
381E00
380E00
380F00
7C0780
FF03E0
ENDCHAR
STARTCHAR L
ENCODING 76
SWIDTH 750 0
DWIDTH 24 0
BBX 17 20 4 0
BITMAP
FF8000
7E0000
1C0000
1C0000
1C0000
1C0000
1C0000
1C0000
1C0000
1C0000
1C0000
1C0000
1C0000
1C0180
1C0100
1C0100
1C0300
1C0300
3FFF00
FFFF00
ENDCHAR
STARTCHAR M
ENCODING 77
SWIDTH 750 0
DWIDTH 24 0
BBX 20 20 2 0
BITMAP
7C01E0
3E03C0
1E03C0
1E07C0
1705C0
1705C0
170DC0
1389C0
1399C0
1391C0
11F1C0
11F1C0
11E1C0
10E1C0
30C1C0
3041C0
3041C0
3001C0
7803E0
FC07F0
ENDCHAR
STARTCHAR N
ENCODING 78
SWIDTH 750 0
DWIDTH 24 0
BBX 20 20 2 0
BITMAP
F807F0
7C01C0
3E00C0
1E0080
1F0080
178080
138080
11C080
11E080
10E080
107080
103880
103C80
101C80
100E80
100F80
100780
100380
380180
FE0180
ENDCHAR
STARTCHAR O
ENCODING 79
SWIDTH 750 0
DWIDTH 24 0
BBX 18 20 3 0
BITMAP
03F000
0E3C00
1C0E00
380700
700380
700380
E001C0
E001C0
E001C0
E001C0
E001C0
E001C0
E001C0
E001C0
700380
700380
380700
3C0600
0F1C00
03F000
ENDCHAR
STARTCHAR P
ENCODING 80
SWIDTH 750 0
DWIDTH 24 0
BBX 18 20 3 0
BITMAP
7FFC00
3F0F00
1E0780
1C0380
1C0380
1C03C0
1C0380
1C0380
1C0380
1C0700
1C0E00
1FF800
1C0000
1C0000
1C0000
1C0000
1C0000
1E0000
3F0000
FFC000
ENDCHAR
STARTCHAR Q
ENCODING 81
SWIDTH 750 0
DWIDTH 24 0
BBX 19 26 3 -6
BITMAP
03F000
0E3C00
1C0E00
380700
700380
700380
E003C0
E001C0
E001C0
E001C0
E001C0
E001C0
E001C0
E001C0
700380
700380
380300
3C0600
0F1C00
07F000
018000
070000
0FC000
19F820
107FC0
000F80
ENDCHAR
STARTCHAR R
ENCODING 82
SWIDTH 750 0
DWIDTH 24 0
BBX 20 20 2 0
BITMAP
FFFC00
3E0E00
1C0700
1C0380
1C0380
1C0380
1C0380
1C0700
1C0700
1C1C00
1FF000
1C7800
1C1C00
1C1E00
1C0E00
1C0700
1C0780
1C0380
3E01C0
FF80F0
ENDCHAR
STARTCHAR S
ENCODING 83
SWIDTH 750 0
DWIDTH 24 0
BBX 16 20 4 0
BITMAP
07F0
1C3C
300C
7006
6006
6000
7000
7C00
3F80
1FF8
07FE
003E
000F
0007
8007
8007
C006
E00E
F838
1FE0
ENDCHAR
STARTCHAR T
ENCODING 84
SWIDTH 750 0
DWIDTH 24 0
BBX 20 20 2 0
BITMAP
7FFFE0
70F0E0
60F060
40F030
C0F030
007000
007000
007000
007000
007000
007000
007000
007000
007000
007000
007000
007000
00F000
01F800
0FFF00
ENDCHAR
STARTCHAR U
ENCODING 85
SWIDTH 750 0
DWIDTH 24 0
BBX 20 20 2 0
BITMAP
FF07F0
3C01C0
3800C0
380080
380080
380080
380080
380080
380080
380080
380080
380080
380080
380080
380080
1C0180
1C0100
0E0300
078E00
01F800
ENDCHAR
STARTCHAR V
ENCODING 86
SWIDTH 750 0
DWIDTH 24 0
BBX 20 20 2 0
BITMAP
FE03F0
7C01E0
3800C0
3C0180
1C0180
1C0100
0E0300
0E0300
0F0200
070600
070400
038C00
038C00
03C800
01D800
01D000
00F000
00F000
00E000
006000
ENDCHAR
STARTCHAR W
ENCODING 87
SWIDTH 750 0
DWIDTH 24 0
BBX 20 20 2 0
BITMAP
FE03F0
7800E0
780040
380040
3800C0
3800C0
386080
1C7080
1C7080
1CF180
1CB900
1CB900
0E9900
0F1F00
0F1F00
0F0E00
0F0E00
060E00
060600
060400
ENDCHAR
STARTCHAR X
ENCODING 88
SWIDTH 750 0
DWIDTH 24 0
BBX 20 20 2 0
BITMAP
FE07F0
3C01C0
1C0180
0E0300
070600
070C00
038800
01D800
00F000
00F000
007000
00F800
019C00
031C00
020E00
060700
0C0700
180380
7803E0
FC07F0
ENDCHAR
STARTCHAR Y
ENCODING 89
SWIDTH 750 0
DWIDTH 24 0
BBX 19 20 3 0
BITMAP
FE07E0
780380
380300
1C0200
0E0600
0E0C00
070800
039800
039000
01F000
00E000
00E000
00E000
00E000
00E000
00E000
00E000
00E000
01F000
07FC00
ENDCHAR
STARTCHAR Z
ENCODING 90
SWIDTH 750 0
DWIDTH 24 0
BBX 17 20 3 0
BITMAP
7FFF80
780700
600F00
401E00
401C00
003800
007800
00F000
00E000
01C000
03C000
078000
070000
0F0000
1E0000
1C0080
380180
780180
700F80
FFFF00
ENDCHAR
STARTCHAR bracketleft
ENCODING 91
SWIDTH 750 0
DWIDTH 24 0
BBX 9 29 9 -6
BITMAP
FF80
F800
E000
E000
E000
E000
E000
E000
E000
E000
E000
E000
E000
E000
E000
E000
E000
E000
E000
E000
E000
E000
E000
E000
E000
E000
E000
F800
FF80
ENDCHAR
STARTCHAR backslash
ENCODING 92
SWIDTH 750 0
DWIDTH 24 0
BBX 14 26 5 -3
BITMAP
C000
C000
6000
6000
3000
3000
1800
1800
0C00
0C00
0600
0600
0300
0300
0180
0180
00C0
00C0
0060
0060
0030
0030
0018
0018
000C
000C
ENDCHAR
STARTCHAR bracketright
ENCODING 93
SWIDTH 750 0
DWIDTH 24 0
BBX 9 29 6 -6
BITMAP
FF80
0F80
0380
0380
0380
0380
0380
0380
0380
0380
0380
0380
0380
0380
0380
0380
0380
0380
0380
0380
0380
0380
0380
0380
0380
0380
0380
0F80
FF80
ENDCHAR
STARTCHAR asciicircum
ENCODING 94
SWIDTH 750 0
DWIDTH 24 0
BBX 14 13 5 7
BITMAP
0300
0780
0780
0DC0
0CC0
0CC0
1860
1860
3030
3030
6018
6018
C00C
ENDCHAR
STARTCHAR underscore
ENCODING 95
SWIDTH 750 0
DWIDTH 24 0
BBX 18 1 3 -5
BITMAP
FFFFC0
ENDCHAR
STARTCHAR grave
ENCODING 96
SWIDTH 750 0
DWIDTH 24 0
BBX 8 6 7 16
BITMAP
78
FC
3C
1E
07
01
ENDCHAR
STARTCHAR a
ENCODING 97
SWIDTH 750 0
DWIDTH 24 0
BBX 17 15 4 0
BITMAP
07E000
1C7800
303800
701C00
701C00
001C00
00FC00
0F9C00
381C00
F01C00
E01C00
E01C00
E07C00
FBDF80
3F0F00
ENDCHAR
STARTCHAR b
ENCODING 98
SWIDTH 750 0
DWIDTH 24 0
BBX 18 22 2 0
BITMAP
1C0000
FC0000
1C0000
1C0000
1C0000
1C0000
1C0000
1CFC00
1FFF00
1E0780
1C0380
1C01C0
1C01C0
1C01C0
1C01C0
1C01C0
1C01C0
1C0180
1C0380
1C0700
1F0E00
11F800
ENDCHAR
STARTCHAR c
ENCODING 99
SWIDTH 750 0
DWIDTH 24 0
BBX 16 15 4 0
BITMAP
03F0
1E3C
380E
700F
6007
E000
E000
E000
E000
F000
7000
7803
3C06
1FFC
07F0
ENDCHAR
STARTCHAR d
ENCODING 100
SWIDTH 750 0
DWIDTH 24 0
BBX 17 22 4 0
BITMAP
000E00
007E00
001E00
000E00
000E00
000E00
000E00
07EE00
1C7E00
301E00
600E00
E00E00
E00E00
E00E00
E00E00
E00E00
E00E00
E00E00
F00E00
783E00
3FEF80
0F8C00
ENDCHAR
STARTCHAR e
ENCODING 101
SWIDTH 750 0
DWIDTH 24 0
BBX 16 15 4 0
BITMAP
03F0
0E3C
380E
3007
7007
700F
FFFF
E000
E000
F000
7000
7801
3C03
1FFC
07F0
ENDCHAR
STARTCHAR f
ENCODING 102
SWIDTH 750 0
DWIDTH 24 0
BBX 16 22 4 0
BITMAP
00FC
03CF
0707
0603
0E00
0E00
0E00
0E00
7FFC
0E00
0E00
0E00
0E00
0E00
0E00
0E00
0E00
0E00
0E00
0E00
1F80
FFFC
ENDCHAR
STARTCHAR g
ENCODING 103
SWIDTH 750 0
DWIDTH 24 0
BBX 16 23 4 -7
BITMAP
0007
0FDF
3870
7038
7038
7018
7018
7038
3038
1C70
3FC0
2000
6000
7000
3FFC
3FFE
2007
6003
C003
C003
E006
7838
3FC0
ENDCHAR
STARTCHAR h
ENCODING 104
SWIDTH 750 0
DWIDTH 24 0
BBX 18 22 3 0
BITMAP
180000
F80000
380000
380000
380000
380000
380000
387C00
39FE00
3B0F00
3C0700
380700
380700
380700
380700
380700
380700
380700
380700
380700
3C0F80
FE1FC0
ENDCHAR
STARTCHAR i
ENCODING 105
SWIDTH 750 0
DWIDTH 24 0
BBX 15 23 5 0
BITMAP
0100
0380
0380
0300
0000
0000
0000
0380
7F80
0780
0380
0380
0380
0380
0380
0380
0380
0380
0380
0380
0380
1FE0
FFFE
ENDCHAR
STARTCHAR j
ENCODING 106
SWIDTH 750 0
DWIDTH 24 0
BBX 13 28 4 -5
BITMAP
0020
0070
00F0
0060
0000
0000
0000
00F8
1FF0
00F0
0070
0070
0070
0070
0070
0070
0070
0070
0070
0070
0070
0070
0070
0060
00E0
E0C0
FBC0
3F00
ENDCHAR
STARTCHAR k
ENCODING 107
SWIDTH 750 0
DWIDTH 24 0
BBX 18 22 3 0
BITMAP
1C0000
F80000
380000
180000
180000
180000
180000
183F80
181E00
181800
183000
186000
18C000
19C000
1FC000
18E000
187000
187800
183C00
181E00
3C0F00
FE0FC0
ENDCHAR
STARTCHAR l
ENCODING 108
SWIDTH 750 0
DWIDTH 24 0
BBX 15 22 5 0
BITMAP
0380
3F80
0780
0380
0380
0380
0380
0380
0380
0380
0380
0380
0380
0380
0380
0380
0380
0380
0380
0380
0FE0
FFFE
ENDCHAR
STARTCHAR m
ENCODING 109
SWIDTH 750 0
DWIDTH 24 0
BBX 20 15 2 0
BITMAP
31C780
FFEFC0
3C71C0
3870C0
3870E0
3870E0
3870E0
3870E0
3870E0
3870E0
3870E0
3870E0
3870E0
3870E0
3870F0
ENDCHAR
STARTCHAR n
ENCODING 110
SWIDTH 750 0
DWIDTH 24 0
BBX 18 15 3 0
BITMAP
387C00
F9FE00
3B0E00
3C0700
380700
380700
380700
380700
380700
380700
380700
380700
380700
3C0F80
FE1FC0
ENDCHAR
STARTCHAR o
ENCODING 111
SWIDTH 750 0
DWIDTH 24 0
BBX 16 15 4 0
BITMAP
07E0
1CF8
301C
600E
E00F
E007
E007
E007
E007
E007
F007
7006
380C
1E38
07E0
ENDCHAR
STARTCHAR p
ENCODING 112
SWIDTH 750 0
DWIDTH 24 0
BBX 18 22 2 -7
BITMAP
1C7C00
FCFF00
1D0780
1E03C0
1C01C0
1C01C0
1C01C0
1C01C0
1C01C0
1C01C0
1C01C0
1C0380
1E0700
1F9E00
1CF800
1C0000
1C0000
1C0000
1C0000
1C0000
3E0000
FF8000
ENDCHAR
STARTCHAR q
ENCODING 113
SWIDTH 750 0
DWIDTH 24 0
BBX 17 22 4 -7
BITMAP
0FC200
1EFE00
701E00
600E00
E00E00
E00E00
E00E00
E00E00
E00E00
E00E00
E00E00
700E00
781E00
3FFE00
0FCE00
000E00
000E00
000E00
000E00
000E00
001F00
007F80
ENDCHAR
STARTCHAR r
ENCODING 114
SWIDTH 750 0
DWIDTH 24 0
BBX 17 15 4 0
BITMAP
0E0F80
7E3F80
0E6380
06C000
078000
070000
060000
060000
060000
060000
060000
060000
0E0000
1F8000
FFF800
ENDCHAR
STARTCHAR s
ENCODING 115
SWIDTH 750 0
DWIDTH 24 0
BBX 14 15 5 0
BITMAP
0FE0
3878
6038
E018
E008
F800
7FC0
1FF8
01FC
001C
800C
C00C
C01C
F078
7FE0
ENDCHAR
STARTCHAR t
ENCODING 116
SWIDTH 750 0
DWIDTH 24 0
BBX 15 21 4 0
BITMAP
0600
0E00
0E00
0E00
0E00
0E00
0E00
FFFC
0E00
0E00
0E00
0E00
0E00
0E00
0E00
0E00
0E00
0E00
0F06
07FC
03E0
ENDCHAR
STARTCHAR u
ENCODING 117
SWIDTH 750 0
DWIDTH 24 0
BBX 18 15 3 0
BITMAP
F81F00
780F00
380700
380700
380700
380700
380700
380700
380700
380700
380700
380F00
1C1F00
1FE7C0
0F8600
ENDCHAR
STARTCHAR v
ENCODING 118
SWIDTH 750 0
DWIDTH 24 0
BBX 18 15 3 0
BITMAP
FE0FC0
7C0380
3C0300
1C0200
1C0600
0E0400
0E0C00
070800
071800
039000
03B000
01E000
01E000
00C000
00C000
ENDCHAR
STARTCHAR w
ENCODING 119
SWIDTH 750 0
DWIDTH 24 0
BBX 20 15 2 0
BITMAP
FC03F0
7800E0
780040
3800C0
3870C0
387080
1C7080
1CB980
1C9900
1D9D00
0F0F00
0F0F00
0E0E00
060600
040600
ENDCHAR
STARTCHAR x
ENCODING 120
SWIDTH 750 0
DWIDTH 24 0
BBX 18 15 3 0
BITMAP
FE1F80
7C0700
1C0C00
0E1800
071000
07B000
03E000
01E000
01E000
037000
063800
0C1C00
181E00
380F00
FC3FC0
ENDCHAR
STARTCHAR y
ENCODING 121
SWIDTH 750 0
DWIDTH 24 0
BBX 19 22 3 -7
BITMAP
FE0FE0
780380
380300
1C0300
1C0200
0E0400
0E0400
070800
070800
079800
039000
03F000
01E000
01E000
00C000
00C000
008000
018000
010000
170000
3E0000
3C0000
ENDCHAR
STARTCHAR z
ENCODING 122
SWIDTH 750 0
DWIDTH 24 0
BBX 16 15 4 0
BITMAP
7FFE
701E
601C
C038
0070
00E0
01C0
0380
0700
0E00
1E01
3C03
7807
F00E
FFFE
ENDCHAR
STARTCHAR braceleft
ENCODING 123
SWIDTH 750 0
DWIDTH 24 0
BBX 12 30 7 -7
BITMAP
0070
03C0
0700
0E00
0C00
0C00
0C00
0C00
0C00
0C00
0E00
0E00
0C00
1C00
3800
E000
1800
0C00
0C00
0E00
0E00
0C00
0C00
0C00
0C00
0C00
0E00
0700
03C0
0070
ENDCHAR
STARTCHAR bar
ENCODING 124
SWIDTH 750 0
DWIDTH 24 0
BBX 2 29 11 -7
BITMAP
C0
C0
C0
C0
C0
C0
C0
C0
C0
C0
C0
C0
C0
C0
C0
C0
C0
C0
C0
C0
C0
C0
C0
C0
C0
C0
C0
C0
C0
ENDCHAR
STARTCHAR braceright
ENCODING 125
SWIDTH 750 0
DWIDTH 24 0
BBX 12 30 5 -7
BITMAP
E000
3C00
0E00
0700
0300
0300
0300
0300
0300
0700
0700
0300
0300
0180
00C0
0070
0180
0300
0300
0700
0700
0300
0300
0300
0300
0300
0700
0E00
3C00
E000
ENDCHAR
STARTCHAR asciitilde
ENCODING 126
SWIDTH 750 0
DWIDTH 24 0
BBX 14 5 5 8
BITMAP
1C00
7E04
E78C
81F8
00F0
ENDCHAR
STARTCHAR uni007F
ENCODING 127
SWIDTH 750 0
DWIDTH 24 0
BBX 1 1 0 0
BITMAP
00
ENDCHAR
STARTCHAR uni0080
ENCODING 128
SWIDTH 750 0
DWIDTH 24 0
BBX 1 1 0 0
BITMAP
00
ENDCHAR
STARTCHAR uni0081
ENCODING 129
SWIDTH 750 0
DWIDTH 24 0
BBX 1 1 0 0
BITMAP
00
ENDCHAR
STARTCHAR uni0082
ENCODING 130
SWIDTH 750 0
DWIDTH 24 0
BBX 1 1 0 0
BITMAP
00
ENDCHAR
STARTCHAR uni0083
ENCODING 131
SWIDTH 750 0
DWIDTH 24 0
BBX 1 1 0 0
BITMAP
00
ENDCHAR
STARTCHAR uni0084
ENCODING 132
SWIDTH 750 0
DWIDTH 24 0
BBX 1 1 0 0
BITMAP
00
ENDCHAR
STARTCHAR uni0085
ENCODING 133
SWIDTH 750 0
DWIDTH 24 0
BBX 1 1 0 0
BITMAP
00
ENDCHAR
STARTCHAR uni0086
ENCODING 134
SWIDTH 750 0
DWIDTH 24 0
BBX 1 1 0 0
BITMAP
00
ENDCHAR
STARTCHAR uni0087
ENCODING 135
SWIDTH 750 0
DWIDTH 24 0
BBX 1 1 0 0
BITMAP
00
ENDCHAR
STARTCHAR uni0088
ENCODING 136
SWIDTH 750 0
DWIDTH 24 0
BBX 1 1 0 0
BITMAP
00
ENDCHAR
STARTCHAR uni0089
ENCODING 137
SWIDTH 750 0
DWIDTH 24 0
BBX 1 1 0 0
BITMAP
00
ENDCHAR
STARTCHAR uni008A
ENCODING 138
SWIDTH 750 0
DWIDTH 24 0
BBX 1 1 0 0
BITMAP
00
ENDCHAR
STARTCHAR uni008B
ENCODING 139
SWIDTH 750 0
DWIDTH 24 0
BBX 1 1 0 0
BITMAP
00
ENDCHAR
STARTCHAR uni008C
ENCODING 140
SWIDTH 750 0
DWIDTH 24 0
BBX 1 1 0 0
BITMAP
00
ENDCHAR
STARTCHAR uni008D
ENCODING 141
SWIDTH 750 0
DWIDTH 24 0
BBX 1 1 0 0
BITMAP
00
ENDCHAR
STARTCHAR uni008E
ENCODING 142
SWIDTH 750 0
DWIDTH 24 0
BBX 1 1 0 0
BITMAP
00
ENDCHAR
STARTCHAR uni008F
ENCODING 143
SWIDTH 750 0
DWIDTH 24 0
BBX 1 1 0 0
BITMAP
00
ENDCHAR
STARTCHAR uni0090
ENCODING 144
SWIDTH 750 0
DWIDTH 24 0
BBX 1 1 0 0
BITMAP
00
ENDCHAR
STARTCHAR uni0091
ENCODING 145
SWIDTH 750 0
DWIDTH 24 0
BBX 1 1 0 0
BITMAP
00
ENDCHAR
STARTCHAR uni0092
ENCODING 146
SWIDTH 750 0
DWIDTH 24 0
BBX 1 1 0 0
BITMAP
00
ENDCHAR
STARTCHAR uni0093
ENCODING 147
SWIDTH 750 0
DWIDTH 24 0
BBX 1 1 0 0
BITMAP
00
ENDCHAR
STARTCHAR uni0094
ENCODING 148
SWIDTH 750 0
DWIDTH 24 0
BBX 1 1 0 0
BITMAP
00
ENDCHAR
STARTCHAR uni0095
ENCODING 149
SWIDTH 750 0
DWIDTH 24 0
BBX 1 1 0 0
BITMAP
00
ENDCHAR
STARTCHAR uni0096
ENCODING 150
SWIDTH 750 0
DWIDTH 24 0
BBX 1 1 0 0
BITMAP
00
ENDCHAR
STARTCHAR uni0097
ENCODING 151
SWIDTH 750 0
DWIDTH 24 0
BBX 1 1 0 0
BITMAP
00
ENDCHAR
STARTCHAR uni0098
ENCODING 152
SWIDTH 750 0
DWIDTH 24 0
BBX 1 1 0 0
BITMAP
00
ENDCHAR
STARTCHAR uni0099
ENCODING 153
SWIDTH 750 0
DWIDTH 24 0
BBX 1 1 0 0
BITMAP
00
ENDCHAR
STARTCHAR uni009A
ENCODING 154
SWIDTH 750 0
DWIDTH 24 0
BBX 1 1 0 0
BITMAP
00
ENDCHAR
STARTCHAR uni009B
ENCODING 155
SWIDTH 750 0
DWIDTH 24 0
BBX 1 1 0 0
BITMAP
00
ENDCHAR
STARTCHAR uni009C
ENCODING 156
SWIDTH 750 0
DWIDTH 24 0
BBX 1 1 0 0
BITMAP
00
ENDCHAR
STARTCHAR uni009D
ENCODING 157
SWIDTH 750 0
DWIDTH 24 0
BBX 1 1 0 0
BITMAP
00
ENDCHAR
STARTCHAR uni009E
ENCODING 158
SWIDTH 750 0
DWIDTH 24 0
BBX 1 1 0 0
BITMAP
00
ENDCHAR
STARTCHAR uni009F
ENCODING 159
SWIDTH 750 0
DWIDTH 24 0
BBX 1 1 0 0
BITMAP
00
ENDCHAR
STARTCHAR uni00A0
ENCODING 160
SWIDTH 750 0
DWIDTH 24 0
BBX 1 1 0 0
BITMAP
00
ENDCHAR
STARTCHAR exclamdown
ENCODING 161
SWIDTH 750 0
DWIDTH 24 0
BBX 4 21 9 -6
BITMAP
70
F0
F0
60
00
00
00
20
20
20
20
20
60
60
70
70
70
70
70
70
70
ENDCHAR
STARTCHAR cent
ENCODING 162
SWIDTH 750 0
DWIDTH 24 0
BBX 16 21 4 -1
BITMAP
0180
0180
0180
07F0
1DBC
398E
318E
7186
6180
6180
E180
6180
7180
7180
7983
3D8E
1FFC
07F0
0180
0180
0180
ENDCHAR
STARTCHAR sterling
ENCODING 163
SWIDTH 750 0
DWIDTH 24 0
BBX 17 21 3 0
BITMAP
007F00
01C780
038300
030000
070000
070000
070000
070000
070000
3FF800
070000
070000
070000
070000
060000
0E0000
0C0000
3F8080
7FE380
E07F00
C03C00
ENDCHAR
STARTCHAR currency
ENCODING 164
SWIDTH 750 0
DWIDTH 24 0
BBX 14 14 5 3
BITMAP
4008
CF8C
7FF8
3070
7038
6018
6018
6018
6018
6018
7030
3870
FFFC
4008
ENDCHAR
STARTCHAR yen
ENCODING 165
SWIDTH 750 0
DWIDTH 24 0
BBX 19 21 3 0
BITMAP
FE07E0
780380
380300
1C0200
1C0600
0E0400
070C00
071800
039000
03B000
01E000
00E000
0FFF00
00E000
00E000
0FFF00
00E000
00E000
00E000
01F000
07FC00
ENDCHAR
STARTCHAR brokenbar
ENCODING 166
SWIDTH 750 0
DWIDTH 24 0
BBX 2 28 11 -6
BITMAP
C0
C0
C0
C0
C0
C0
C0
C0
C0
C0
C0
C0
00
00
00
00
C0
C0
C0
C0
C0
C0
C0
C0
C0
C0
C0
C0
ENDCHAR
STARTCHAR section
ENCODING 167
SWIDTH 750 0
DWIDTH 24 0
BBX 12 27 6 -6
BITMAP
0F80
31C0
30C0
60E0
7040
7000
3800
3C00
3F00
47C0
43E0
C0E0
C070
E030
E030
7030
3C30
1F20
0FC0
03C0
00E0
00E0
0060
3060
3060
38C0
0F80
ENDCHAR
STARTCHAR dieresis
ENCODING 168
SWIDTH 750 0
DWIDTH 24 0
BBX 8 3 8 18
BITMAP
C3
E7
C3
ENDCHAR
STARTCHAR copyright
ENCODING 169
SWIDTH 750 0
DWIDTH 24 0
BBX 18 18 3 1
BITMAP
03F000
0C0C00
100200
200100
41E080
421880
861840
8C0040
8C0040
8C0040
8C0040
860040
471080
41E080
200100
100200
0C0C00
03F000
ENDCHAR
STARTCHAR ordfeminine
ENCODING 170
SWIDTH 750 0
DWIDTH 24 0
BBX 9 10 8 11
BITMAP
3C00
4600
C200
4300
0F00
7300
C300
C300
C700
7B80
ENDCHAR
STARTCHAR guillemotleft
ENCODING 171
SWIDTH 750 0
DWIDTH 24 0
BBX 14 13 5 1
BITMAP
020C
0618
0C38
1870
70E0
E1C0
E3C0
70E0
3860
1830
0C18
060C
0204
ENDCHAR
STARTCHAR logicalnot
ENCODING 172
SWIDTH 750 0
DWIDTH 24 0
BBX 16 9 3 3
BITMAP
FFFF
0001
0001
0001
0001
0001
0001
0001
0001
ENDCHAR
STARTCHAR uni00AD
ENCODING 173
SWIDTH 750 0
DWIDTH 24 0
BBX 12 2 6 7
BITMAP
FFF0
FFF0
ENDCHAR
STARTCHAR registered
ENCODING 174
SWIDTH 750 0
DWIDTH 24 0
BBX 18 18 3 1
BITMAP
03F000
0C0C00
100600
200100
400180
47E080
8330C0
831040
833040
83E040
836040
833040
431080
478C80
200100
100200
0C0C00
03F000
ENDCHAR
STARTCHAR macron
ENCODING 175
SWIDTH 750 0
DWIDTH 24 0
BBX 8 1 4 17
BITMAP
FF
ENDCHAR
STARTCHAR degree
ENCODING 176
SWIDTH 750 0
DWIDTH 24 0
BBX 8 8 8 13
BITMAP
3C
7E
C3
C3
83
C3
C7
7E
ENDCHAR
STARTCHAR plusminus
ENCODING 177
SWIDTH 750 0
DWIDTH 24 0
BBX 18 20 3 1
BITMAP
00C000
00C000
00C000
00C000
00C000
00C000
00C000
7FFFC0
FFFF80
00C000
00C000
00C000
00C000
00C000
00C000
00C000
000000
000000
7FFFC0
FFFF80
ENDCHAR
STARTCHAR uni00B2
ENCODING 178
SWIDTH 750 0
DWIDTH 24 0
BBX 8 10 6 12
BITMAP
3C
46
C3
07
06
0C
30
61
C1
FF
ENDCHAR
STARTCHAR uni00B3
ENCODING 179
SWIDTH 750 0
DWIDTH 24 0
BBX 8 11 6 11
BITMAP
7C
C6
06
04
1E
07
03
03
03
C6
7C
ENDCHAR
STARTCHAR acute
ENCODING 180
SWIDTH 750 0
DWIDTH 24 0
BBX 8 6 7 16
BITMAP
0F
1F
3E
78
E0
C0
ENDCHAR
STARTCHAR mu
ENCODING 181
SWIDTH 750 0
DWIDTH 24 0
BBX 16 21 4 -7
BITMAP
E038
E038
E038
6038
6038
6038
6038
6038
6038
6038
6078
70F8
7BBF
7E1E
4000
6000
6000
E000
E000
E000
6000
ENDCHAR
STARTCHAR paragraph
ENCODING 182
SWIDTH 750 0
DWIDTH 24 0
BBX 17 28 4 -7
BITMAP
1FFF80
7FCC00
FFCC00
FFCC00
FFCC00
FFCC00
FFCC00
FFCC00
FFCC00
7FCC00
3FCC00
03CC00
00CC00
00CC00
00CC00
00CC00
00CC00
00CC00
00CC00
00CC00
00CC00
00CC00
00CC00
00CC00
00CC00
00CC00
00CC00
07FF80
ENDCHAR
STARTCHAR periodcentered
ENCODING 183
SWIDTH 750 0
DWIDTH 24 0
BBX 3 3 4 7
BITMAP
60
E0
E0
ENDCHAR
STARTCHAR cedilla
ENCODING 184
SWIDTH 750 0
DWIDTH 24 0
BBX 5 6 4 -6
BITMAP
20
40
78
18
18
F0
ENDCHAR
STARTCHAR uni00B9
ENCODING 185
SWIDTH 750 0
DWIDTH 24 0
BBX 6 10 7 12
BITMAP
30
F0
30
30
30
30
30
30
30
FC
ENDCHAR
STARTCHAR ordmasculine
ENCODING 186
SWIDTH 750 0
DWIDTH 24 0
BBX 9 8 3 10
BITMAP
3E00
6300
C300
C180
C180
C100
6300
3E00
ENDCHAR
STARTCHAR guillemotright
ENCODING 187
SWIDTH 750 0
DWIDTH 24 0
BBX 14 13 5 1
BITMAP
C100
6180
70C0
3860
1C38
0E1C
0F1C
1C38
1870
3060
60C0
C180
8100
ENDCHAR
STARTCHAR onequarter
ENCODING 188
SWIDTH 750 0
DWIDTH 24 0
BBX 17 23 4 -3
BITMAP
300000
F00300
300200
300600
300C00
300800
301000
303000
302000
FC4000
00C000
018000
010200
030600
060E00
041600
082600
186600
107F80
200600
600600
C00600
000F80
ENDCHAR
STARTCHAR onehalf
ENCODING 189
SWIDTH 750 0
DWIDTH 24 0
BBX 19 23 3 -3
BITMAP
180000
780180
180100
180200
180600
180C00
180800
181800
383000
FC2000
006000
00C000
008F80
0198C0
0318C0
0200C0
0400C0
0C0180
080300
100600
300820
201860
003FC0
ENDCHAR
STARTCHAR threequarters
ENCODING 190
SWIDTH 750 0
DWIDTH 24 0
BBX 17 23 3 -3
BITMAP
7C0000
C60180
060300
0C0200
1E0600
030C00
030800
031800
C63000
7C2000
004000
00C000
008200
010600
030A00
061200
042200
0C2200
187F80
100200
200200
600700
000F80
ENDCHAR
STARTCHAR questiondown
ENCODING 191
SWIDTH 750 0
DWIDTH 24 0
BBX 13 21 5 -6
BITMAP
0380
0780
0780
0300
0000
0000
0100
0100
0100
0300
0600
1C00
3800
7000
E000
E038
E038
E018
7030
3860
1F80
ENDCHAR
STARTCHAR Agrave
ENCODING 192
SWIDTH 750 0
DWIDTH 24 0
BBX 20 26 2 0
BITMAP
01C000
01E000
007800
000800
000000
000000
006000
007000
00F000
00B000
01B800
01B800
011C00
031C00
021C00
020E00
060E00
07FE00
0C0700
0C0700
080380
180380
180380
3001C0
7803C0
FE0FF0
ENDCHAR
STARTCHAR Aacute
ENCODING 193
SWIDTH 750 0
DWIDTH 24 0
BBX 20 26 2 0
BITMAP
000C00
001E00
007000
004000
000000
000000
006000
007000
00F000
00B000
01B800
01B800
011C00
031C00
021C00
020E00
060E00
07FE00
0C0700
0C0700
080380
180380
180380
3001C0
7803C0
FE0FF0
ENDCHAR
STARTCHAR Acircumflex
ENCODING 194
SWIDTH 750 0
DWIDTH 24 0
BBX 20 26 2 0
BITMAP
006000
00F000
01D800
030400
000000
000000
006000
007000
00F000
00B000
01B800
01B800
011C00
031C00
021C00
020E00
060E00
07FE00
0C0700
0C0700
080380
180380
180380
3001C0
7803C0
FE0FF0
ENDCHAR
STARTCHAR Atilde
ENCODING 195
SWIDTH 750 0
DWIDTH 24 0
BBX 20 25 2 0
BITMAP
008200
01E600
023C00
021800
000000
006000
007000
00F000
00B000
01B800
01B800
011C00
031C00
021C00
020E00
060E00
07FE00
0C0700
0C0700
080380
180380
180380
3001C0
7803C0
FE0FF0
ENDCHAR
STARTCHAR Adieresis
ENCODING 196
SWIDTH 750 0
DWIDTH 24 0
BBX 20 24 2 0
BITMAP
060600
070E00
060600
000000
006000
007000
00F000
00B000
01B800
01B800
011C00
031C00
021C00
020E00
060E00
07FE00
0C0700
0C0700
080380
180380
180380
3001C0
7803C0
FE0FF0
ENDCHAR
STARTCHAR Aring
ENCODING 197
SWIDTH 750 0
DWIDTH 24 0
BBX 20 25 2 0
BITMAP
00F000
019800
019800
019800
00F000
006000
007000
00F000
00B000
01B800
01B800
011C00
031C00
021C00
060E00
060E00
07FE00
0C0700
0C0700
080380
180380
180380
3001C0
7803C0
FE0FF0
ENDCHAR
STARTCHAR AE
ENCODING 198
SWIDTH 750 0
DWIDTH 24 0
BBX 20 20 2 0
BITMAP
0FFFE0
03F8E0
033060
023020
023020
063000
063000
043080
0C3180
0C3F80
0C3180
0FF080
183080
183000
103000
103010
303030
303060
7079E0
F9FFE0
ENDCHAR
STARTCHAR Ccedilla
ENCODING 199
SWIDTH 750 0
DWIDTH 24 0
BBX 18 26 3 -6
BITMAP
01FC00
070F80
0C0380
180180
300080
7000C0
700000
E00000
E00000
E00000
E00000
E00000
E00000
F00000
700000
780000
3800C0
1C0180
0F0E00
03F800
004000
004000
00F000
001800
001800
01F000
ENDCHAR
STARTCHAR Egrave
ENCODING 200
SWIDTH 750 0
DWIDTH 24 0
BBX 18 26 3 0
BITMAP
070000
03C000
00E000
000000
000000
000000
FFFF00
3C0300
1C0180
1C0180
1C0080
1C0000
1C0000
1C0800
1C1800
1FF800
1C1800
1C0800
1C0000
1C0000
1C0000
1C0040
1C00C0
1C00C0
3C03C0
FFFF80
ENDCHAR
STARTCHAR Eacute
ENCODING 201
SWIDTH 750 0
DWIDTH 24 0
BBX 18 26 3 0
BITMAP
00F000
01E000
030000
000000
000000
000000
FFFF00
3C0300
1C0180
1C0180
1C0080
1C0000
1C0000
1C0800
1C1800
1FF800
1C1800
1C0800
1C0000
1C0000
1C0000
1C0040
1C00C0
1C00C0
3C03C0
FFFF80
ENDCHAR
STARTCHAR Ecircumflex
ENCODING 202
SWIDTH 750 0
DWIDTH 24 0
BBX 18 26 3 0
BITMAP
018000
03C000
063000
000000
000000
000000
FFFF00
3C0300
1C0180
1C0180
1C0080
1C0000
1C0000
1C0800
1C1800
1FF800
1C1800
1C0800
1C0000
1C0000
1C0000
1C0040
1C00C0
1C00C0
3C03C0
FFFF80
ENDCHAR
STARTCHAR Edieresis
ENCODING 203
SWIDTH 750 0
DWIDTH 24 0
BBX 18 26 3 0
BITMAP
061800
0E3800
061800
000000
000000
000000
FFFF00
3C0300
1C0180
1C0180
1C0080
1C0000
1C0000
1C0800
1C1800
1FF800
1C1800
1C0800
1C0000
1C0000
1C0000
1C0040
1C00C0
1C00C0
3C03C0
FFFF80
ENDCHAR
STARTCHAR Igrave
ENCODING 204
SWIDTH 750 0
DWIDTH 24 0
BBX 13 26 6 0
BITMAP
3800
1E00
0700
0000
0000
0000
FFF8
1F80
0700
0700
0700
0700
0700
0700
0700
0700
0700
0700
0700
0700
0700
0700
0700
0700
1F80
FFF8
ENDCHAR
STARTCHAR Iacute
ENCODING 205
SWIDTH 750 0
DWIDTH 24 0
BBX 13 26 6 0
BITMAP
0300
0F00
1C00
0000
0000
0000
FFF8
1F80
0700
0700
0700
0700
0700
0700
0700
0700
0700
0700
0700
0700
0700
0700
0700
0700
1F80
FFF8
ENDCHAR
STARTCHAR Icircumflex
ENCODING 206
SWIDTH 750 0
DWIDTH 24 0
BBX 13 26 6 0
BITMAP
0600
0F00
1980
2000
0000
0000
FFF8
1F80
0700
0700
0700
0700
0700
0700
0700
0700
0700
0700
0700
0700
0700
0700
0700
0700
1F80
FFF8
ENDCHAR
STARTCHAR Idieresis
ENCODING 207
SWIDTH 750 0
DWIDTH 24 0
BBX 13 26 6 0
BITMAP
71C0
71C0
70C0
0000
0000
0000
FFF8
1F80
0700
0700
0700
0700
0700
0700
0700
0700
0700
0700
0700
0700
0700
0700
0700
0700
1F80
FFF8
ENDCHAR
STARTCHAR Eth
ENCODING 208
SWIDTH 750 0
DWIDTH 24 0
BBX 19 20 2 0
BITMAP
FFF800
7E1E00
3C0700
1C0380
1C01C0
1C01C0
1C01C0
1C01E0
1C00E0
1C00E0
FF80E0
1C00E0
1C00E0
1C00E0
1C01C0
1C01C0
1C0180
1C0380
3E0E00
FFF800
ENDCHAR
STARTCHAR Ntilde
ENCODING 209
SWIDTH 750 0
DWIDTH 24 0
BBX 20 25 2 0
BITMAP
01C400
03FC00
023800
000000
000000
F807F0
7C01C0
3E00C0
1E0080
1F0080
178080
138080
11C080
11E080
10E080
107080
103880
103C80
101C80
100E80
100F80
100780
100380
380180
FE0180
ENDCHAR
STARTCHAR Ograve
ENCODING 210
SWIDTH 750 0
DWIDTH 24 0
BBX 18 26 3 0
BITMAP
01C000
01E000
007000
000000
000000
000000
03F000
0E3C00
1C0E00
380700
700380
700380
E001C0
E001C0
E001C0
E001C0
E001C0
E001C0
E001C0
E001C0
700380
700380
380700
3C0600
0F1C00
03F000
ENDCHAR
STARTCHAR Oacute
ENCODING 211
SWIDTH 750 0
DWIDTH 24 0
BBX 18 26 3 0
BITMAP
003000
007800
01E000
010000
000000
000000
03F000
0E3C00
1C0E00
380700
700380
700380
E001C0
E001C0
E001C0
E001C0
E001C0
E001C0
E001C0
E001C0
700380
700380
380700
3C0600
0F1C00
03F000
ENDCHAR
STARTCHAR Ocircumflex
ENCODING 212
SWIDTH 750 0
DWIDTH 24 0
BBX 18 26 3 0
BITMAP
00C000
01E000
033000
041800
000000
000000
03F000
0E3C00
1C0E00
380700
700380
700380
E001C0
E001C0
E001C0
E001C0
E001C0
E001C0
E001C0
E001C0
700380
700380
380700
3C0600
0F1C00
03F000
ENDCHAR
STARTCHAR Otilde
ENCODING 213
SWIDTH 750 0
DWIDTH 24 0
BBX 18 25 3 0
BITMAP
030800
078800
04F800
002000
000000
03F000
0E3C00
1C0E00
380700
700380
700380
E001C0
E001C0
E001C0
E001C0
E001C0
E001C0
E001C0
E001C0
700380
700380
380700
3C0600
0F1C00
03F000
ENDCHAR
STARTCHAR Odieresis
ENCODING 214
SWIDTH 750 0
DWIDTH 24 0
BBX 18 24 3 0
BITMAP
700380
700380
700380
000000
03F000
0E3C00
1C0E00
380700
700380
700380
E001C0
E001C0
E001C0
E001C0
E001C0
E001C0
E001C0
E001C0
700380
700380
380700
3C0600
0F1C00
03F000
ENDCHAR
STARTCHAR multiply
ENCODING 215
SWIDTH 750 0
DWIDTH 24 0
BBX 10 10 7 3
BITMAP
40C0
E1C0
7380
3F00
1E00
1E00
3F00
7380
E1C0
4080
ENDCHAR
STARTCHAR Oslash
ENCODING 216
SWIDTH 750 0
DWIDTH 24 0
BBX 18 20 3 0
BITMAP
03F080
0E3D80
1C0F00
380700
700F80
700F80
E019C0
E031C0
E061C0
E0C1C0
E181C0
E301C0
E301C0
E601C0
7C0380
780380
380700
7C0600
CF1C00
83F000
ENDCHAR
STARTCHAR Ugrave
ENCODING 217
SWIDTH 750 0
DWIDTH 24 0
BBX 20 26 2 0
BITMAP
01C000
01E000
003800
000000
000000
000000
FF07F0
3C01C0
3800C0
380080
380080
380080
380080
380080
380080
380080
380080
380080
380080
380080
380080
1C0180
1C0100
0E0300
078E00
01F800
ENDCHAR
STARTCHAR Uacute
ENCODING 218
SWIDTH 750 0
DWIDTH 24 0
BBX 20 26 2 0
BITMAP
001C00
003C00
00E000
000000
000000
000000
FF07F0
3C01C0
3800C0
380080
380080
380080
380080
380080
380080
380080
380080
380080
380080
380080
380080
1C0180
1C0100
0E0300
078E00
01F800
ENDCHAR
STARTCHAR Ucircumflex
ENCODING 219
SWIDTH 750 0
DWIDTH 24 0
BBX 20 26 2 0
BITMAP
003000
007800
00CC00
010000
000000
000000
FF07F0
3C01C0
3800C0
380080
380080
380080
380080
380080
380080
380080
380080
380080
380080
380080
380080
1C0180
1C0100
0E0300
078E00
01F800
ENDCHAR
STARTCHAR Udieresis
ENCODING 220
SWIDTH 750 0
DWIDTH 24 0
BBX 20 24 2 0
BITMAP
00CC00
01CE00
00CC00
000000
FE03F0
3C01E0
3800C0
1800C0
1800C0
1800C0
1800C0
1800C0
1800C0
1800C0
1800C0
1800C0
1800C0
180080
1C0080
1C0180
1C0180
0E0300
078E00
01F800
ENDCHAR
STARTCHAR Yacute
ENCODING 221
SWIDTH 750 0
DWIDTH 24 0
BBX 19 27 3 0
BITMAP
001000
003800
007800
01C000
000000
000000
000000
FE07E0
780380
380300
1C0200
0E0600
0E0C00
070800
039800
039000
01F000
00E000
00E000
00E000
00E000
00E000
00E000
00E000
00E000
01F000
07FC00
ENDCHAR
STARTCHAR Thorn
ENCODING 222
SWIDTH 750 0
DWIDTH 24 0
BBX 17 20 3 0
BITMAP
FF8000
1E0000
1C0000
1C0000
1FF800
1C0E00
1C0700
1C0380
1C0380
1C0380
1C0380
1C0300
1C0700
1C0E00
1FF800
1C0000
1C0000
1C0000
1C0000
FF8000
ENDCHAR
STARTCHAR germandbls
ENCODING 223
SWIDTH 750 0
DWIDTH 24 0
BBX 17 22 3 0
BITMAP
01F800
071C00
0E0E00
1C0E00
1C0E00
1C0C00
1C1C00
7C1800
1C2000
1C7000
1C3800
1C0E00
1C0F00
1C0700
1C0380
1C0380
1C0380
1C0380
1C4380
1CC300
3C4600
FE3C00
ENDCHAR
STARTCHAR agrave
ENCODING 224
SWIDTH 750 0
DWIDTH 24 0
BBX 17 23 4 0
BITMAP
070000
070000
038000
018000
00C000
000000
000000
000000
07E000
1C7800
303800
701C00
701C00
001C00
00FC00
0F9C00
381C00
F01C00
E01C00
E01C00
E07C00
FBDF80
3F0F00
ENDCHAR
STARTCHAR aacute
ENCODING 225
SWIDTH 750 0
DWIDTH 24 0
BBX 17 23 4 0
BITMAP
004000
00E000
00C000
018000
030000
000000
000000
000000
07E000
1C7800
303800
701C00
701C00
001C00
00FC00
0F9C00
381C00
F01C00
E01C00
E01C00
E07C00
FBDF80
3F0F00
ENDCHAR
STARTCHAR acircumflex
ENCODING 226
SWIDTH 750 0
DWIDTH 24 0
BBX 17 22 4 0
BITMAP
018000
03C000
06C000
0C6000
080000
000000
000000
07E000
1C7800
303800
701C00
701C00
001C00
00FC00
0F9C00
381C00
F01C00
E01C00
E01C00
E07C00
FBDF80
3F0F00
ENDCHAR
STARTCHAR atilde
ENCODING 227
SWIDTH 750 0
DWIDTH 24 0
BBX 17 22 4 0
BITMAP
0E1000
0F3000
11E000
004000
000000
000000
000000
07E000
1C7800
303800
701C00
701C00
001C00
00FC00
0F9C00
381C00
F01C00
E01C00
E01C00
E07C00
FBDF80
3F0F00
ENDCHAR
STARTCHAR adieresis
ENCODING 228
SWIDTH 750 0
DWIDTH 24 0
BBX 17 22 4 0
BITMAP
0C7000
1C7000
0C7000
000000
000000
000000
000000
07E000
1C7800
303800
701C00
701C00
001C00
00FC00
0F9C00
381C00
F01C00
E01C00
E01C00
E07C00
FBDF80
3F0F00
ENDCHAR
STARTCHAR aring
ENCODING 229
SWIDTH 750 0
DWIDTH 24 0
BBX 17 22 4 0
BITMAP
038000
04C000
044000
044000
038000
000000
000000
07E000
1C7800
303800
701C00
701C00
001C00
00FC00
0F9C00
381C00
F01C00
E01C00
E01C00
E07C00
FBDF80
3F0F00
ENDCHAR
STARTCHAR ae
ENCODING 230
SWIDTH 750 0
DWIDTH 24 0
BBX 18 15 3 0
BITMAP
1F0F00
73B9C0
61E1C0
E0E0C0
40E1C0
00C380
0FFE00
3CC000
70C000
E0E000
C0E000
C1E040
E1F0C0
FF3F80
3E1F00
ENDCHAR
STARTCHAR ccedilla
ENCODING 231
SWIDTH 750 0
DWIDTH 24 0
BBX 16 21 4 -6
BITMAP
03F0
1E3C
380E
700F
6007
E000
E000
E000
E000
F000
7000
7803
3C06
1FFC
07F0
0100
0200
03C0
00C0
00C0
0F80
ENDCHAR
STARTCHAR egrave
ENCODING 232
SWIDTH 750 0
DWIDTH 24 0
BBX 16 23 4 0
BITMAP
0700
0700
0380
0180
00C0
0000
0000
0000
03F0
0E3C
380E
3007
7007
700F
FFFF
E000
E000
F000
7000
7801
3C03
1FFC
07F0
ENDCHAR
STARTCHAR eacute
ENCODING 233
SWIDTH 750 0
DWIDTH 24 0
BBX 16 23 4 0
BITMAP
0040
00E0
00C0
0180
0300
0000
0000
0000
03F0
0E3C
380E
3007
7007
700F
FFFF
E000
E000
F000
7000
7801
3C03
1FFC
07F0
ENDCHAR
STARTCHAR ecircumflex
ENCODING 234
SWIDTH 750 0
DWIDTH 24 0
BBX 16 22 4 0
BITMAP
0180
03C0
0660
0C30
0810
0000
0000
03F0
0E3C
380E
3007
7007
700F
FFFF
E000
E000
F000
7000
7801
3C03
1FFC
07F0
ENDCHAR
STARTCHAR edieresis
ENCODING 235
SWIDTH 750 0
DWIDTH 24 0
BBX 16 22 4 0
BITMAP
0638
0E38
0638
0000
0000
0000
0000
03F0
0E3C
380E
3007
7007
700F
FFFF
E000
E000
F000
7000
7801
3C03
1FFC
07F0
ENDCHAR
STARTCHAR igrave
ENCODING 236
SWIDTH 750 0
DWIDTH 24 0
BBX 15 23 5 0
BITMAP
0E00
0E00
0700
0180
0080
0000
0000
0380
7F80
0780
0380
0380
0380
0380
0380
0380
0380
0380
0380
0380
0380
1FE0
FFFE
ENDCHAR
STARTCHAR iacute
ENCODING 237
SWIDTH 750 0
DWIDTH 24 0
BBX 15 24 5 0
BITMAP
0080
01C0
0180
0300
0600
0400
0000
0000
0380
7F80
0780
0380
0380
0380
0380
0380
0380
0380
0380
0380
0380
0380
1FE0
FFFE
ENDCHAR
STARTCHAR icircumflex
ENCODING 238
SWIDTH 750 0
DWIDTH 24 0
BBX 15 23 5 0
BITMAP
0300
0780
0FC0
0840
1020
0000
0000
0380
7F80
0780
0380
0380
0380
0380
0380
0380
0380
0380
0380
0380
0380
1FE0
FFFE
ENDCHAR
STARTCHAR idieresis
ENCODING 239
SWIDTH 750 0
DWIDTH 24 0
BBX 15 22 5 0
BITMAP
0C70
1C70
0C70
0000
0000
0000
0380
7F80
0780
0380
0380
0380
0380
0380
0380
0380
0380
0380
0380
0380
1FE0
FFFE
ENDCHAR
STARTCHAR eth
ENCODING 240
SWIDTH 750 0
DWIDTH 24 0
BBX 16 22 4 0
BITMAP
0618
01F0
01E0
0370
0238
0038
001C
07FC
1E7E
380E
700E
600E
E00F
E007
E007
E00E
E00E
700E
700C
381C
1E70
07E0
ENDCHAR
STARTCHAR ntilde
ENCODING 241
SWIDTH 750 0
DWIDTH 24 0
BBX 18 22 3 0
BITMAP
038400
07C800
047800
003000
000000
000000
000000
387C00
F9FE00
3B0E00
3C0700
380700
380700
380700
380700
380700
380700
380700
380700
380700
3C0F80
FE1FC0
ENDCHAR
STARTCHAR ograve
ENCODING 242
SWIDTH 750 0
DWIDTH 24 0
BBX 16 23 4 0
BITMAP
0700
0700
0380
0180
00C0
0000
0000
0000
07E0
1CF8
301C
600E
E00F
E007
E007
E007
E007
E007
F007
7006
380C
1E38
07E0
ENDCHAR
STARTCHAR oacute
ENCODING 243
SWIDTH 750 0
DWIDTH 24 0
BBX 16 23 4 0
BITMAP
0040
00E0
00C0
0180
0300
0000
0000
0000
07E0
1CF8
301C
600E
E00F
E007
E007
E007
E007
E007
F007
7006
380C
1E38
07E0
ENDCHAR
STARTCHAR ocircumflex
ENCODING 244
SWIDTH 750 0
DWIDTH 24 0
BBX 16 22 4 0
BITMAP
0180
03C0
0360
0630
0010
0000
0000
07E0
1CF8
301C
600E
E00F
E007
E007
E007
E007
E007
F007
7006
380C
1E38
07E0
ENDCHAR
STARTCHAR otilde
ENCODING 245
SWIDTH 750 0
DWIDTH 24 0
BBX 16 22 4 0
BITMAP
0708
0F90
08F0
0060
0000
0000
0000
07E0
1CF8
301C
600E
E00F
E007
E007
E007
E007
E007
F007
7006
380C
1E38
07E0
ENDCHAR
STARTCHAR odieresis
ENCODING 246
SWIDTH 750 0
DWIDTH 24 0
BBX 16 22 4 0
BITMAP
0E30
0E38
0E30
0000
0000
0000
0000
07E0
1CF8
301C
600E
E00F
E007
E007
E007
E007
E007
F007
7006
380C
1E38
07E0
ENDCHAR
STARTCHAR divide
ENCODING 247
SWIDTH 750 0
DWIDTH 24 0
BBX 18 13 3 2
BITMAP
004000
00E000
00E000
00E000
000000
000000
7FFFC0
FFFF80
000000
004000
00E000
00E000
00E000
ENDCHAR
STARTCHAR oslash
ENCODING 248
SWIDTH 750 0
DWIDTH 24 0
BBX 16 16 4 -1
BITMAP
07E6
1C7C
301C
601E
E02F
E067
E0C7
E187
E307
E607
EC07
7806
780C
3E38
67E0
4000
ENDCHAR
STARTCHAR ugrave
ENCODING 249
SWIDTH 750 0
DWIDTH 24 0
BBX 18 23 3 0
BITMAP
038000
038000
01C000
00C000
006000
000000
000000
000000
F81F00
780F00
380700
380700
380700
380700
380700
380700
380700
380700
380700
380F00
1C1F00
1FE7C0
0F8600
ENDCHAR
STARTCHAR uacute
ENCODING 250
SWIDTH 750 0
DWIDTH 24 0
BBX 18 23 3 0
BITMAP
003000
007000
00E000
00C000
018000
000000
000000
000000
F81F00
780F00
380700
380700
380700
380700
380700
380700
380700
380700
380700
380F00
1C1F00
1FE7C0
0F8600
ENDCHAR
STARTCHAR ucircumflex
ENCODING 251
SWIDTH 750 0
DWIDTH 24 0
BBX 18 23 3 0
BITMAP
00C000
00C000
01E000
033000
061800
000000
000000
000000
F81F00
780F00
380700
380700
380700
380700
380700
380700
380700
380700
380700
380F00
1C1F00
1FE7C0
0F8600
ENDCHAR
STARTCHAR udieresis
ENCODING 252
SWIDTH 750 0
DWIDTH 24 0
BBX 18 22 3 0
BITMAP
061800
0E3800
063800
000000
000000
000000
000000
F81F00
780F00
380700
380700
380700
380700
380700
380700
380700
380700
380700
380F00
1C1F00
1FE7C0
0F8600
ENDCHAR
STARTCHAR yacute
ENCODING 253
SWIDTH 750 0
DWIDTH 24 0
BBX 19 30 3 -7
BITMAP
003000
007000
00E000
00C000
018000
000000
000000
000000
FE0FE0
780380
380300
1C0300
1C0200
0E0400
0E0400
070800
070800
079800
039000
03F000
01E000
01E000
00C000
00C000
008000
018000
010000
170000
3E0000
3C0000
ENDCHAR
STARTCHAR thorn
ENCODING 254
SWIDTH 750 0
DWIDTH 24 0
BBX 16 29 3 -7
BITMAP
1800
F800
3800
3800
3800
3800
3800
38F0
3BFC
3E1E
380F
3807
3807
3807
3807
3807
3807
3807
380E
380C
3C38
3FE0
3800
3800
3800
3800
3800
3800
FF00
ENDCHAR
STARTCHAR ydieresis
ENCODING 255
SWIDTH 750 0
DWIDTH 24 0
BBX 19 29 3 -7
BITMAP
031C00
071C00
031C00
000000
000000
000000
000000
FE0FE0
780380
380300
1C0300
1C0200
0E0400
0E0400
070800
070800
079800
039000
03F000
01E000
01E000
00C000
00C000
008000
018000
010000
170000
3E0000
3C0000
ENDCHAR
STARTCHAR Amacron
ENCODING 256
SWIDTH 750 0
DWIDTH 24 0
BBX 20 24 2 0
BITMAP
03FC00
03FC00
000000
000000
006000
007000
00F000
00B000
01B800
01B800
011C00
031C00
021C00
020E00
060E00
07FE00
0C0700
0C0700
080380
180380
180380
3001C0
7803C0
FE0FF0
ENDCHAR
STARTCHAR amacron
ENCODING 257
SWIDTH 750 0
DWIDTH 24 0
BBX 17 20 4 0
BITMAP
0FF000
0FF000
000000
000000
000000
07E000
1C7800
303800
701C00
701C00
001C00
00FC00
0F9C00
381C00
F01C00
E01C00
E01C00
E07C00
FBDF80
3F0F00
ENDCHAR
STARTCHAR Abreve
ENCODING 258
SWIDTH 750 0
DWIDTH 24 0
BBX 20 26 2 0
BITMAP
020400
020400
03F800
00F000
000000
000000
006000
007000
00F000
00B000
01B800
01B800
011C00
031C00
021C00
020E00
060E00
07FE00
0C0700
0C0700
080380
180380
180380
3001C0
7803C0
FE0FF0
ENDCHAR
STARTCHAR abreve
ENCODING 259
SWIDTH 750 0
DWIDTH 24 0
BBX 17 23 4 0
BITMAP
001000
081000
0C2000
0FE000
03C000
000000
000000
000000
07E000
1C7800
303800
701C00
701C00
001C00
00FC00
0F9C00
381C00
F01C00
E01C00
E01C00
E07C00
FBDF80
3F0F00
ENDCHAR
STARTCHAR Aogonek
ENCODING 260
SWIDTH 750 0
DWIDTH 24 0
BBX 20 26 2 -6
BITMAP
006000
007000
00F000
00B000
01B800
01B800
011C00
031C00
021C00
020E00
060E00
07FE00
0C0700
0C0700
080380
180380
180380
3001C0
7803C0
FE0FF0
000300
000600
000C00
000C00
000C40
000780
ENDCHAR
STARTCHAR aogonek
ENCODING 261
SWIDTH 750 0
DWIDTH 24 0
BBX 17 21 4 -6
BITMAP
07E000
1C7800
303800
701C00
701C00
001C00
00FC00
0F9C00
381C00
F01C00
E01C00
E01C00
E07C00
FBDF80
3F0F00
000600
000C00
001800
001800
001C80
000F00
ENDCHAR
STARTCHAR Cacute
ENCODING 262
SWIDTH 750 0
DWIDTH 24 0
BBX 18 26 3 0
BITMAP
003000
007800
01E000
010000
000000
000000
01FC00
070F80
0C0380
180180
300080
7000C0
700000
E00000
E00000
E00000
E00000
E00000
E00000
F00000
700000
780040
3800C0
1C0180
0F0E00
01F800
ENDCHAR
STARTCHAR cacute
ENCODING 263
SWIDTH 750 0
DWIDTH 24 0
BBX 16 23 4 0
BITMAP
0040
00E0
00C0
0180
0300
0000
0000
0000
03F0
1E3C
380E
700F
6007
E000
E000
E000
E000
F000
7000
7803
3C06
1FFC
07F0
ENDCHAR
STARTCHAR Ccircumflex
ENCODING 264
SWIDTH 750 0
DWIDTH 24 0
BBX 18 26 3 0
BITMAP
006000
00F000
019800
030400
000000
000000
01FC00
070F80
0C0380
180180
300080
7000C0
700000
E00000
E00000
E00000
E00000
E00000
E00000
F00000
700000
780040
3800C0
1C0180
0F0E00
01F800
ENDCHAR
STARTCHAR ccircumflex
ENCODING 265
SWIDTH 750 0
DWIDTH 24 0
BBX 16 22 4 0
BITMAP
0180
03C0
0660
0C30
0810
0000
0000
03F0
1E3C
380E
700F
6007
E000
E000
E000
E000
F000
7000
7803
3C06
1FFC
07F0
ENDCHAR
STARTCHAR Cdotaccent
ENCODING 266
SWIDTH 750 0
DWIDTH 24 0
BBX 18 26 3 0
BITMAP
006000
00F000
007000
000000
000000
000000
01FC00
070F80
0C0380
180180
300080
7000C0
700000
E00000
E00000
E00000
E00000
E00000
E00000
F00000
700000
780040
3800C0
1C0180
0F0E00
01F800
ENDCHAR
STARTCHAR cdotaccent
ENCODING 267
SWIDTH 750 0
DWIDTH 24 0
BBX 16 22 4 0
BITMAP
0180
03C0
03C0
0180
0000
0000
0000
03F0
1E3C
380E
700F
6007
E000
E000
E000
E000
F000
7000
7803
3C06
1FFC
07F0
ENDCHAR
STARTCHAR Ccaron
ENCODING 268
SWIDTH 750 0
DWIDTH 24 0
BBX 18 26 3 0
BITMAP
030C00
019800
00F000
006000
000000
000000
01FC00
070F80
0C0380
180180
300080
7000C0
700000
E00000
E00000
E00000
E00000
E00000
E00000
F00000
700000
780040
3800C0
1C0180
0F0E00
01F800
ENDCHAR
STARTCHAR ccaron
ENCODING 269
SWIDTH 750 0
DWIDTH 24 0
BBX 16 23 4 0
BITMAP
0810
0420
0660
03C0
0180
0000
0000
0000
03F0
1E3C
380E
700F
6007
E000
E000
E000
E000
F000
7000
7803
3C06
1FFC
07F0
ENDCHAR
STARTCHAR Dcaron
ENCODING 270
SWIDTH 750 0
DWIDTH 24 0
BBX 19 26 2 0
BITMAP
030800
01B000
00E000
000000
000000
000000
FFF800
7E1E00
3C0700
1C0380
1C01C0
1C01C0
1C01C0
1C00E0
1C00E0
1C00E0
1C00E0
1C00E0
1C00E0
1C00E0
1C01C0
1C01C0
1C0380
1C0300
3E0E00
FFF800
ENDCHAR
STARTCHAR dcaron
ENCODING 271
SWIDTH 750 0
DWIDTH 24 0
BBX 20 22 4 0
BITMAP
000E60
007EF0
000E70
000E10
000E20
000EC0
000E00
07EE00
1C7E00
301E00
600E00
E00E00
E00E00
E00E00
E00E00
E00E00
E00E00
E00E00
F00E00
783E00
3FEF80
0F8C00
ENDCHAR
STARTCHAR Dcroat
ENCODING 272
SWIDTH 750 0
DWIDTH 24 0
BBX 19 20 2 0
BITMAP
FFF800
7E1E00
3C0700
1C0380
1C01C0
1C01C0
1C01C0
1C01E0
1C00E0
1C00E0
FFC0E0
1C00E0
1C00E0
1C00E0
1C01C0
1C01C0
1C0180
1C0380
3E0E00
FFF800
ENDCHAR
STARTCHAR dcroat
ENCODING 273
SWIDTH 750 0
DWIDTH 24 0
BBX 17 22 4 0
BITMAP
000E00
007E00
001E00
000E00
01FF80
000E00
000E00
07EE00
1C7E00
301E00
600E00
E00E00
E00E00
E00E00
E00E00
E00E00
E00E00
E00E00
F00E00
783E00
3FEF80
0F8C00
ENDCHAR
STARTCHAR Emacron
ENCODING 274
SWIDTH 750 0
DWIDTH 24 0
BBX 18 20 3 0
BITMAP
FFFF00
3C0300
1C0180
1C0180
1C0080
1C0000
1C0000
1C0800
1C1800
1FF800
1C1800
1C0800
1C0000
1C0000
1C0000
1C0040
1C00C0
1C00C0
3C03C0
FFFF80
ENDCHAR
STARTCHAR emacron
ENCODING 275
SWIDTH 750 0
DWIDTH 24 0
BBX 16 20 4 0
BITMAP
0FF0
0FF0
0000
0000
0000
03F0
0E3C
380E
3007
7007
700F
FFFF
E000
E000
F000
7000
7801
3C03
1FFC
07F0
ENDCHAR
STARTCHAR Ebreve
ENCODING 276
SWIDTH 750 0
DWIDTH 24 0
BBX 18 26 3 0
BITMAP
101000
083000
0FE000
018000
000000
000000
FFFF00
3C0300
1C0180
1C0180
1C0080
1C0000
1C0000
1C0800
1C1800
1FF800
1C1800
1C0800
1C0000
1C0000
1C0000
1C0040
1C00C0
1C00C0
3C03C0
FFFF80
ENDCHAR
STARTCHAR ebreve
ENCODING 277
SWIDTH 750 0
DWIDTH 24 0
BBX 16 23 4 0
BITMAP
0008
0C08
0610
07F0
01E0
0000
0000
0000
03F0
0E3C
380E
3007
7007
700F
FFFF
E000
E000
F000
7000
7801
3C03
1FFC
07F0
ENDCHAR
STARTCHAR Edotaccent
ENCODING 278
SWIDTH 750 0
DWIDTH 24 0
BBX 18 26 3 0
BITMAP
038000
038000
038000
000000
000000
000000
FFFF00
3C0300
1C0180
1C0180
1C0080
1C0000
1C0000
1C0800
1C1800
1FF800
1C1800
1C0800
1C0000
1C0000
1C0000
1C0040
1C00C0
1C00C0
3C03C0
FFFF80
ENDCHAR
STARTCHAR edotaccent
ENCODING 279
SWIDTH 750 0
DWIDTH 24 0
BBX 16 22 4 0
BITMAP
0180
01C0
01C0
0080
0000
0000
0000
03F0
0E3C
380E
3007
7007
700F
FFFF
E000
E000
F000
7000
7801
3C03
1FFC
07F0
ENDCHAR
STARTCHAR Eogonek
ENCODING 280
SWIDTH 750 0
DWIDTH 24 0
BBX 18 26 3 -6
BITMAP
FFFF00
3C0300
1C0180
1C0180
1C0080
1C0000
1C0000
1C0800
1C1800
1FF800
1C1800
1C0800
1C0000
1C0000
1C0000
1C0040
1C00C0
1C00C0
3C03C0
FFFF80
003000
006000
006000
00C000
00E400
007800
ENDCHAR
STARTCHAR eogonek
ENCODING 281
SWIDTH 750 0
DWIDTH 24 0
BBX 16 21 4 -6
BITMAP
03F0
0E3C
380E
3007
7007
700F
FFFF
E000
E000
F000
7000
7801
3C03
1FFC
07F0
0020
0040
00C0
00C0
00CC
00F0
ENDCHAR
STARTCHAR Ecaron
ENCODING 282
SWIDTH 750 0
DWIDTH 24 0
BBX 18 26 3 0
BITMAP
031800
01F000
00E000
000000
000000
000000
FFFF00
3C0300
1C0180
1C0180
1C0080
1C0000
1C0000
1C0800
1C1800
1FF800
1C1800
1C0800
1C0000
1C0000
1C0000
1C0040
1C00C0
1C00C0
3C03C0
FFFF80
ENDCHAR
STARTCHAR ecaron
ENCODING 283
SWIDTH 750 0
DWIDTH 24 0
BBX 16 22 4 0
BITMAP
0610
0360
01C0
01C0
0000
0000
0000
03F0
0E3C
380E
3007
7007
700F
FFFF
E000
E000
F000
7000
7801
3C03
1FFC
07F0
ENDCHAR
STARTCHAR Gcircumflex
ENCODING 284
SWIDTH 750 0
DWIDTH 24 0
BBX 19 26 3 0
BITMAP
006000
00F000
019800
020400
000000
000000
01FE00
0F0F00
1C0300
380100
700180
700080
E00000
E00000
E00000
E00000
E00000
E01FE0
E00780
E00380
700380
700380
380380
1C0380
0F0700
03FC00
ENDCHAR
STARTCHAR gcircumflex
ENCODING 285
SWIDTH 750 0
DWIDTH 24 0
BBX 16 29 4 -7
BITMAP
0300
0780
0CC0
1860
1020
0000
0007
0FDF
3870
7038
7038
7018
7018
7038
3038
1C70
3FC0
2000
6000
7000
3FFC
3FFE
2007
6003
C003
C003
E006
7838
3FC0
ENDCHAR
STARTCHAR Gbreve
ENCODING 286
SWIDTH 750 0
DWIDTH 24 0
BBX 19 26 3 0
BITMAP
020400
030C00
01F800
006000
000000
000000
01FE00
0F0F00
1C0300
380100
700180
700080
E00000
E00000
E00000
E00000
E00000
E01FE0
E00780
E00380
700380
700380
380380
1C0380
0F0700
03FC00
ENDCHAR
STARTCHAR gbreve
ENCODING 287
SWIDTH 750 0
DWIDTH 24 0
BBX 16 30 4 -7
BITMAP
0020
1020
1840
0FC0
0780
0000
0000
0007
0FDF
3870
7038
7038
7018
7018
7038
3038
1C70
3FC0
2000
6000
7000
3FFC
3FFE
2007
6003
C003
C003
E006
7838
3FC0
ENDCHAR
STARTCHAR Gdotaccent
ENCODING 288
SWIDTH 750 0
DWIDTH 24 0
BBX 19 26 3 0
BITMAP
006000
00F000
007000
000000
000000
000000
01FE00
0F0F00
1C0300
380100
700180
700080
E00000
E00000
E00000
E00000
E00000
E01FE0
E00780
E00380
700380
700380
380380
1C0380
0F0700
03FC00
ENDCHAR
STARTCHAR gdotaccent
ENCODING 289
SWIDTH 750 0
DWIDTH 24 0
BBX 16 29 4 -7
BITMAP
0300
0780
0780
0300
0000
0000
0007
0FDF
3870
7038
7038
7018
7018
7038
3038
1C70
3FC0
2000
6000
7000
3FFC
3FFE
2007
6003
C003
C003
E006
7838
3FC0
ENDCHAR
STARTCHAR uni0122
ENCODING 290
SWIDTH 750 0
DWIDTH 24 0
BBX 19 27 3 -7
BITMAP
01FE00
0F0F00
1C0300
380100
700180
700080
E00000
E00000
E00000
E00000
E00000
E01FE0
E00780
E00380
700380
700380
380380
1C0380
0F0700
03FC00
000000
003000
007800
003800
001800
001000
006000
ENDCHAR
STARTCHAR uni0123
ENCODING 291
SWIDTH 750 0
DWIDTH 24 0
BBX 16 30 4 -7
BITMAP
0300
0400
0400
0700
0780
0200
0000
0007
0FDF
3870
7038
7038
7018
7018
7038
3038
1C70
3FC0
2000
6000
7000
3FFC
3FFE
2007
6003
C003
C003
E006
7838
3FC0
ENDCHAR
STARTCHAR Hcircumflex
ENCODING 292
SWIDTH 750 0
DWIDTH 24 0
BBX 20 26 2 0
BITMAP
006000
00F000
019800
020400
000000
000000
FF0FF0
3E07C0
1C0380
1C0380
1C0380
1C0380
1C0380
1C0380
1C0380
1FFF80
1C0380
1C0380
1C0380
1C0380
1C0380
1C0380
1C0380
1C0380
3E07C0
FF0FF0
ENDCHAR
STARTCHAR hcircumflex
ENCODING 293
SWIDTH 750 0
DWIDTH 24 0
BBX 18 23 3 0
BITMAP
003000
187000
F87800
38C800
398400
380000
380000
380000
387C00
39FE00
3B0F00
3C0700
380700
380700
380700
380700
380700
380700
380700
380700
380700
3C0F80
FE1FC0
ENDCHAR
STARTCHAR Hbar
ENCODING 294
SWIDTH 750 0
DWIDTH 24 0
BBX 20 20 2 0
BITMAP
FF0FF0
3C03C0
1C0380
FFFFF0
1C0380
1C0380
1C0380
1C0380
1C0380
1FFF80
1C0380
1C0380
1C0380
1C0380
1C0380
1C0380
1C0380
1C0380
3E07C0
FF0FF0
ENDCHAR
STARTCHAR hbar
ENCODING 295
SWIDTH 750 0
DWIDTH 24 0
BBX 19 22 2 0
BITMAP
0C0000
7C0000
1C0000
1C0000
FF8000
FF0000
1C0000
1C3E00
1CFF00
1D8780
1E0380
1C0380
1C0380
1C0380
1C0380
1C0380
1C0380
1C0380
1C0380
1C0380
1E07C0
7F0FE0
ENDCHAR
STARTCHAR Itilde
ENCODING 296
SWIDTH 750 0
DWIDTH 24 0
BBX 13 26 6 0
BITMAP
1C40
3FC0
2380
0000
0000
0000
FFF8
1F80
0700
0700
0700
0700
0700
0700
0700
0700
0700
0700
0700
0700
0700
0700
0700
0700
1F80
FFF8
ENDCHAR
STARTCHAR itilde
ENCODING 297
SWIDTH 750 0
DWIDTH 24 0
BBX 15 22 5 0
BITMAP
0E10
1F20
11E0
00C0
0000
0000
0380
7F80
0780
0380
0380
0380
0380
0380
0380
0380
0380
0380
0380
0380
1FE0
FFFE
ENDCHAR
STARTCHAR Imacron
ENCODING 298
SWIDTH 750 0
DWIDTH 24 0
BBX 13 20 6 0
BITMAP
FFF8
1F80
0700
0700
0700
0700
0700
0700
0700
0700
0700
0700
0700
0700
0700
0700
0700
0700
1F80
FFF8
ENDCHAR
STARTCHAR imacron
ENCODING 299
SWIDTH 750 0
DWIDTH 24 0
BBX 15 21 5 0
BITMAP
1FE0
1FE0
0000
0000
0000
0380
7F80
0780
0380
0380
0380
0380
0380
0380
0380
0380
0380
0380
0380
1FE0
FFFE
ENDCHAR
STARTCHAR Ibreve
ENCODING 300
SWIDTH 750 0
DWIDTH 24 0
BBX 13 26 6 0
BITMAP
2020
30C0
1F80
0600
0000
0000
FFF8
1F80
0700
0700
0700
0700
0700
0700
0700
0700
0700
0700
0700
0700
0700
0700
0700
0700
1F80
FFF8
ENDCHAR
STARTCHAR ibreve
ENCODING 301
SWIDTH 750 0
DWIDTH 24 0
BBX 15 24 5 0
BITMAP
1020
1020
1860
0FC0
0780
0000
0000
0000
0380
7F80
0780
0380
0380
0380
0380
0380
0380
0380
0380
0380
0380
0380
1FE0
FFFE
ENDCHAR
STARTCHAR Iogonek
ENCODING 302
SWIDTH 750 0
DWIDTH 24 0
BBX 13 26 6 -6
BITMAP
FFF8
1F80
0700
0700
0700
0700
0700
0700
0700
0700
0700
0700
0700
0700
0700
0700
0700
0700
0F80
FFF8
0300
0400
0C00
0C00
0CC0
0F80
ENDCHAR
STARTCHAR iogonek
ENCODING 303
SWIDTH 750 0
DWIDTH 24 0
BBX 15 29 5 -6
BITMAP
0100
0380
0380
0300
0000
0000
0000
0380
7F80
0780
0380
0380
0380
0380
0380
0380
0380
0380
0380
0380
0380
0FE0
FFFE
0300
0600
0C00
0C00
0C40
0F80
ENDCHAR
STARTCHAR Idotaccent
ENCODING 304
SWIDTH 750 0
DWIDTH 24 0
BBX 13 26 6 0
BITMAP
0600
0700
0700
0000
0000
0000
FFF8
1F80
0700
0700
0700
0700
0700
0700
0700
0700
0700
0700
0700
0700
0700
0700
0700
0700
1F80
FFF8
ENDCHAR
STARTCHAR dotlessi
ENCODING 305
SWIDTH 750 0
DWIDTH 24 0
BBX 15 16 5 0
BITMAP
0380
7F80
0780
0380
0380
0380
0380
0380
0380
0380
0380
0380
0380
0380
1FE0
FFFE
ENDCHAR
STARTCHAR IJ
ENCODING 306
SWIDTH 750 0
DWIDTH 24 0
BBX 18 25 3 -5
BITMAP
FFBFC0
3C0F00
1C0700
1C0700
1C0700
1C0700
1C0700
1C0700
1C0700
1C0700
1C0700
1C0700
1C0700
1C0700
1C0700
1C0700
1C0700
1C0700
3C0700
FF8600
000600
000E00
018C00
03D800
01E000
ENDCHAR
STARTCHAR ij
ENCODING 307
SWIDTH 750 0
DWIDTH 24 0
BBX 17 30 3 -7
BITMAP
040200
0E0700
0E0700
0E0300
000000
000000
000000
0E0780
7E7F00
0E0700
0E0700
0E0700
0E0700
0E0700
0E0700
0E0700
0E0700
0E0700
0E0700
0E0700
0E0700
1F0700
FFE700
000700
000700
000700
038700
038600
01CE00
00FC00
ENDCHAR
STARTCHAR Jcircumflex
ENCODING 308
SWIDTH 750 0
DWIDTH 24 0
BBX 15 26 4 0
BITMAP
00E0
01F0
0318
0000
0000
0000
1FFE
01F0
00E0
00E0
00E0
00E0
00E0
00E0
00E0
00E0
00E0
00E0
00E0
00E0
00E0
00E0
01C0
E1C0
FB80
7E00
ENDCHAR
STARTCHAR jcircumflex
ENCODING 309
SWIDTH 750 0
DWIDTH 24 0
BBX 14 28 4 -5
BITMAP
0060
0070
00D8
018C
0004
0000
0000
00F8
1FF0
00F0
0070
0070
0070
0070
0070
0070
0070
0070
0070
0070
0070
0070
0070
0060
00E0
E0C0
FBC0
3F00
ENDCHAR
STARTCHAR uni0136
ENCODING 310
SWIDTH 750 0
DWIDTH 24 0
BBX 19 27 3 -7
BITMAP
FF0FC0
7E0780
380600
380C00
381800
383000
386000
38C000
398000
3FC000
39E000
38E000
387000
383800
383C00
381E00
380E00
380F00
7C0780
FF03E0
000000
006000
00F000
007000
001000
003000
00E000
ENDCHAR
STARTCHAR uni0137
ENCODING 311
SWIDTH 750 0
DWIDTH 24 0
BBX 18 29 3 -7
BITMAP
1C0000
F80000
380000
180000
180000
180000
180000
183F80
181E00
181800
183000
186000
18C000
19C000
1FC000
18E000
187000
187800
183C00
181E00
3C0F00
FE0FC0
000000
010000
038000
038000
008000
008000
030000
ENDCHAR
STARTCHAR kgreenlandic
ENCODING 312
SWIDTH 750 0
DWIDTH 24 0
BBX 18 15 3 0
BITMAP
0C3F80
FC0E00
1C0C00
1C1800
1C3000
1C6000
1DC000
1FE000
1CF000
1C7800
1C3800
1C1C00
1C1E00
3C0F00
FF07C0
ENDCHAR
STARTCHAR Lacute
ENCODING 313
SWIDTH 750 0
DWIDTH 24 0
BBX 17 26 4 0
BITMAP
038000
0F8000
1C0000
000000
000000
000000
FF8000
7E0000
1C0000
1C0000
1C0000
1C0000
1C0000
1C0000
1C0000
1C0000
1C0000
1C0000
1C0000
1C0180
1C0100
1C0100
1C0300
1C0300
3FFF00
FFFF00
ENDCHAR
STARTCHAR lacute
ENCODING 314
SWIDTH 750 0
DWIDTH 24 0
BBX 15 26 5 0
BITMAP
03C0
0780
0C00
0000
0380
3F80
0780
0380
0380
0380
0380
0380
0380
0380
0380
0380
0380
0380
0380
0380
0380
0380
0380
0380
0FE0
FFFE
ENDCHAR
STARTCHAR uni013B
ENCODING 315
SWIDTH 750 0
DWIDTH 24 0
BBX 17 27 4 -7
BITMAP
FF8000
7E0000
1C0000
1C0000
1C0000
1C0000
1C0000
1C0000
1C0000
1C0000
1C0000
1C0000
1C0000
1C0180
1C0100
1C0100
1C0300
1C0300
3FFF00
FFFF00
000000
008000
01C000
01C000
004000
004000
018000
ENDCHAR
STARTCHAR uni013C
ENCODING 316
SWIDTH 750 0
DWIDTH 24 0
BBX 15 29 5 -7
BITMAP
0380
3F80
0780
0380
0380
0380
0380
0380
0380
0380
0380
0380
0380
0380
0380
0380
0380
0380
0380
0380
0FE0
FFFE
0000
0300
0780
0380
0080
0180
0700
ENDCHAR
STARTCHAR Lcaron
ENCODING 317
SWIDTH 750 0
DWIDTH 24 0
BBX 17 20 4 0
BITMAP
FF8000
7E0000
1C0000
1C0000
1C0000
1C0000
1C0000
1C0000
1C0000
1C0000
1C0000
1C0000
1C0000
1C0180
1C0100
1C0100
1C0300
1C0300
3FFF00
FFFF00
ENDCHAR
STARTCHAR lcaron
ENCODING 318
SWIDTH 750 0
DWIDTH 24 0
BBX 15 22 5 0
BITMAP
0380
3F80
0780
0380
0380
0380
0380
0380
0380
0380
0380
0380
0380
0380
0380
0380
0380
0380
0380
0380
0FE0
FFFE
ENDCHAR
STARTCHAR Ldot
ENCODING 319
SWIDTH 750 0
DWIDTH 24 0
BBX 17 20 4 0
BITMAP
FF8000
7E0000
1C0000
1C0000
1C0000
1C0000
1C0000
1C0000
1C7000
1C7000
1C7000
1C0000
1C0000
1C0180
1C0100
1C0100
1C0300
1C0300
3FFF00
FFFF00
ENDCHAR
STARTCHAR ldot
ENCODING 320
SWIDTH 750 0
DWIDTH 24 0
BBX 15 22 5 0
BITMAP
0380
3F80
0780
0380
0380
0380
0380
0380
0380
038C
038E
038C
0380
0380
0380
0380
0380
0380
0380
0380
0FE0
FFFE
ENDCHAR
STARTCHAR Lslash
ENCODING 321
SWIDTH 750 0
DWIDTH 24 0
BBX 18 20 3 0
BITMAP
7FC000
3F0000
0E0000
0E0000
0E0000
0E0000
0E4000
0F8000
0F0000
0E0000
3E0000
CE0000
0E0000
0E00C0
0E0080
0E0080
0E0180
0E0180
1FFF80
7FFF80
ENDCHAR
STARTCHAR lslash
ENCODING 322
SWIDTH 750 0
DWIDTH 24 0
BBX 15 22 5 0
BITMAP
0380
3F80
0780
0380
0380
0380
0380
0380
03A0
03E0
0380
0780
1B80
0380
0380
0380
0380
0380
0380
0380
0FE0
FFFE
ENDCHAR
STARTCHAR Nacute
ENCODING 323
SWIDTH 750 0
DWIDTH 24 0
BBX 20 26 2 0
BITMAP
003C00
007800
00E000
000000
000000
000000
F807F0
7C01C0
3E00C0
1E0080
1F0080
178080
138080
11C080
11E080
10E080
107080
103880
103C80
101C80
100E80
100F80
100780
100380
380180
FE0180
ENDCHAR
STARTCHAR nacute
ENCODING 324
SWIDTH 750 0
DWIDTH 24 0
BBX 18 23 3 0
BITMAP
002000
007000
006000
00C000
018000
000000
000000
000000
387C00
F9FE00
3B0E00
3C0700
380700
380700
380700
380700
380700
380700
380700
380700
380700
3C0F80
FE1FC0
ENDCHAR
STARTCHAR uni0145
ENCODING 325
SWIDTH 750 0
DWIDTH 24 0
BBX 20 27 2 -7
BITMAP
F807F0
7C01C0
3E00C0
1E0080
1F0080
178080
138080
11C080
11E080
10E080
107080
103880
103C80
101C80
100E80
100F80
100780
100380
380180
FE0180
000000
003000
003800
001800
000800
001800
002000
ENDCHAR
STARTCHAR uni0146
ENCODING 326
SWIDTH 750 0
DWIDTH 24 0
BBX 18 22 3 -7
BITMAP
387C00
F9FE00
3B0E00
3C0700
380700
380700
380700
380700
380700
380700
380700
380700
380700
3C0F80
FE1FC0
000000
004000
00E000
00E000
002000
002000
00C000
ENDCHAR
STARTCHAR Ncaron
ENCODING 327
SWIDTH 750 0
DWIDTH 24 0
BBX 20 26 2 0
BITMAP
018600
00FC00
003800
000000
000000
000000
F807F0
7C01C0
3E00C0
1E0080
1F0080
178080
138080
11C080
11E080
10E080
107080
103880
103C80
101C80
100E80
100F80
100780
100380
380180
FE0180
ENDCHAR
STARTCHAR ncaron
ENCODING 328
SWIDTH 750 0
DWIDTH 24 0
BBX 18 22 3 0
BITMAP
021800
013000
01E000
00C000
000000
000000
000000
387C00
F9FE00
3B0E00
3C0700
380700
380700
380700
380700
380700
380700
380700
380700
380700
3C0F80
FE1FC0
ENDCHAR
STARTCHAR napostrophe
ENCODING 329
SWIDTH 750 0
DWIDTH 24 0
BBX 22 22 0 0
BITMAP
600000
F00000
300000
100000
200000
C00000
000000
038780
0F9FC0
03A0E0
03C0E0
0380E0
0380E0
0380E0
0380E0
0380E0
0380E0
0380E0
0380E0
0380E0
0780F0
1FE3FC
ENDCHAR
STARTCHAR Eng
ENCODING 330
SWIDTH 750 0
DWIDTH 24 0
BBX 18 25 2 -5
BITMAP
FC3E00
3C7F00
1CC380
1D8180
1F01C0
1E01C0
1C01C0
1C01C0
1C01C0
1C01C0
1C01C0
1C01C0
1C01C0
1C01C0
1C01C0
1C01C0
1C01C0
1C01C0
1C01C0
FF81C0
000180
000180
006300
007600
007C00
ENDCHAR
STARTCHAR eng
ENCODING 331
SWIDTH 750 0
DWIDTH 24 0
BBX 16 22 3 -7
BITMAP
387C
F9FE
3A07
3C07
3807
3807
3807
3807
3807
3807
3807
3807
3807
3C07
FE07
0007
0007
0007
0006
0046
00FC
0078
ENDCHAR
STARTCHAR Omacron
ENCODING 332
SWIDTH 750 0
DWIDTH 24 0
BBX 18 26 3 0
BITMAP
07F800
07F800
000000
000000
000000
000000
03F000
0E3C00
1C0E00
380700
700380
700380
E001C0
E001C0
E001C0
E001C0
E001C0
E001C0
E001C0
E001C0
700380
700380
380700
3C0600
0F1C00
03F000
ENDCHAR
STARTCHAR omacron
ENCODING 333
SWIDTH 750 0
DWIDTH 24 0
BBX 16 20 4 0
BITMAP
0FF0
0FF0
0000
0000
0000
07E0
1CF8
301C
600E
E00F
E007
E007
E007
E007
E007
F007
7006
380C
1E38
07E0
ENDCHAR
STARTCHAR Obreve
ENCODING 334
SWIDTH 750 0
DWIDTH 24 0
BBX 18 26 3 0
BITMAP
040000
040800
03F800
01E000
000000
000000
03F000
0E3C00
1C0E00
380700
700380
700380
E001C0
E001C0
E001C0
E001C0
E001C0
E001C0
E001C0
E001C0
700380
700380
380700
3C0600
0F1C00
03F000
ENDCHAR
STARTCHAR obreve
ENCODING 335
SWIDTH 750 0
DWIDTH 24 0
BBX 16 23 4 0
BITMAP
0810
0810
0C30
07E0
03C0
0000
0000
0000
07E0
1CF8
301C
600E
E00F
E007
E007
E007
E007
E007
F007
7006
380C
1E38
07E0
ENDCHAR
STARTCHAR Ohungarumlaut
ENCODING 336
SWIDTH 750 0
DWIDTH 24 0
BBX 18 27 3 0
BITMAP
004400
00EE00
00CC00
019800
011000
000000
000000
03F000
0E3C00
1C0E00
380700
700380
700380
E001C0
E001C0
E001C0
E001C0
E001C0
E001C0
E001C0
E001C0
700380
700380
380700
3C0600
0F1C00
03F000
ENDCHAR
STARTCHAR ohungarumlaut
ENCODING 337
SWIDTH 750 0
DWIDTH 24 0
BBX 16 24 4 0
BITMAP
0198
0198
0330
0220
0440
0000
0000
0000
0000
07E0
1CF8
301C
600E
E00F
E007
E007
E007
E007
E007
F007
7006
380C
1E38
07E0
ENDCHAR
STARTCHAR OE
ENCODING 338
SWIDTH 750 0
DWIDTH 24 0
BBX 20 20 2 0
BITMAP
0FFFE0
1C7060
387020
707020
707020
707000
707040
707040
E070C0
E07FC0
E070C0
E07040
F07000
707000
707000
707010
707010
387030
1C7070
0FFFF0
ENDCHAR
STARTCHAR oe
ENCODING 339
SWIDTH 750 0
DWIDTH 24 0
BBX 18 15 3 0
BITMAP
1F0F00
339980
61B1C0
E0E0C0
C0E0C0
C0FFC0
C0E000
C0E000
C0E000
C0E000
E0E000
E0F000
61B840
333F80
1E0F00
ENDCHAR
STARTCHAR Racute
ENCODING 340
SWIDTH 750 0
DWIDTH 24 0
BBX 20 26 2 0
BITMAP
007000
01E000
038000
000000
000000
000000
FFFC00
3E0E00
1C0700
1C0380
1C0380
1C0380
1C0380
1C0700
1C0700
1C1C00
1FF000
1C7800
1C1C00
1C1E00
1C0E00
1C0700
1C0780
1C0380
3E01C0
FF80F0
ENDCHAR
STARTCHAR racute
ENCODING 341
SWIDTH 750 0
DWIDTH 24 0
BBX 17 23 4 0
BITMAP
006000
007000
00E000
00C000
018000
000000
000000
000000
0E0F80
7E3F80
0E6380
06C000
078000
070000
060000
060000
060000
060000
060000
060000
0E0000
1F8000
FFF800
ENDCHAR
STARTCHAR uni0156
ENCODING 342
SWIDTH 750 0
DWIDTH 24 0
BBX 20 27 2 -7
BITMAP
FFFC00
3E0E00
1C0700
1C0380
1C0380
1C0380
1C0380
1C0700
1C0700
1C1C00
1FF000
1C7800
1C1C00
1C1E00
1C0E00
1C0700
1C0780
1C0380
3E01C0
FF80F0
000000
006000
00E000
00F000
003000
002000
00C000
ENDCHAR
STARTCHAR uni0157
ENCODING 343
SWIDTH 750 0
DWIDTH 24 0
BBX 17 22 4 -7
BITMAP
0E0F80
7E3F80
0E6380
06C000
078000
070000
060000
060000
060000
060000
060000
060000
0E0000
1F8000
FFF800
000000
020000
070000
070000
010000
010000
060000
ENDCHAR
STARTCHAR Rcaron
ENCODING 344
SWIDTH 750 0
DWIDTH 24 0
BBX 20 26 2 0
BITMAP
043000
03E000
01C000
000000
000000
000000
FFFC00
3E0E00
1C0700
1C0380
1C0380
1C0380
1C0380
1C0700
1C0700
1C1C00
1FF000
1C7800
1C1C00
1C1E00
1C0E00
1C0700
1C0780
1C0380
3E01C0
FF80F0
ENDCHAR
STARTCHAR rcaron
ENCODING 345
SWIDTH 750 0
DWIDTH 24 0
BBX 17 23 4 0
BITMAP
081000
042000
066000
03C000
018000
000000
000000
000000
0E0F80
7E3F80
0E6380
06C000
078000
070000
060000
060000
060000
060000
060000
060000
0E0000
1F8000
FFF800
ENDCHAR
STARTCHAR Sacute
ENCODING 346
SWIDTH 750 0
DWIDTH 24 0
BBX 16 26 4 0
BITMAP
00E0
01E0
0380
0400
0000
0000
07F0
1C3C
300C
7006
6006
6000
7000
7C00
3F80
1FF8
07FE
003E
000F
0007
8007
8007
C006
E00E
F838
1FE0
ENDCHAR
STARTCHAR sacute
ENCODING 347
SWIDTH 750 0
DWIDTH 24 0
BBX 14 23 5 0
BITMAP
0080
01C0
0180
0300
0600
0000
0000
0000
0FE0
3878
6038
E018
E008
F800
7FC0
1FF8
01FC
001C
800C
C00C
C01C
F078
7FE0
ENDCHAR
STARTCHAR Scircumflex
ENCODING 348
SWIDTH 750 0
DWIDTH 24 0
BBX 16 26 4 0
BITMAP
0180
03C0
0660
0800
0000
0000
07F0
1C3C
300C
7006
6006
6000
7000
7C00
3F80
1FF8
07FE
003E
000F
0007
8007
8007
C006
E00E
F838
1FE0
ENDCHAR
STARTCHAR scircumflex
ENCODING 349
SWIDTH 750 0
DWIDTH 24 0
BBX 14 22 5 0
BITMAP
0300
0780
0CC0
1860
1020
0000
0000
0FE0
3878
6038
E018
E008
F800
7FC0
1FF8
01FC
001C
800C
C00C
C01C
F078
7FE0
ENDCHAR
STARTCHAR Scedilla
ENCODING 350
SWIDTH 750 0
DWIDTH 24 0
BBX 16 26 4 -6
BITMAP
07F0
1C3C
300C
7006
6006
6000
7000
7C00
3F80
1FF8
07FE
003E
000F
0007
8007
8007
C006
E00E
F838
1FE0
0100
0200
03C0
00C0
00C0
0F80
ENDCHAR
STARTCHAR scedilla
ENCODING 351
SWIDTH 750 0
DWIDTH 24 0
BBX 14 21 5 -6
BITMAP
0FE0
3878
6038
E018
E008
F800
7FC0
1FF8
01FC
001C
800C
C00C
C01C
F078
7FE0
0200
0400
0780
0180
0180
1F00
ENDCHAR
STARTCHAR Scaron
ENCODING 352
SWIDTH 750 0
DWIDTH 24 0
BBX 16 26 4 0
BITMAP
0C10
0760
03C0
0180
0000
0000
07F0
1C3C
300C
7006
6006
6000
7000
7C00
3F80
1FF8
07FE
003E
000F
0007
8007
8007
C006
E00E
F838
1FE0
ENDCHAR
STARTCHAR scaron
ENCODING 353
SWIDTH 750 0
DWIDTH 24 0
BBX 14 23 5 0
BITMAP
1020
0840
0CC0
0780
0300
0000
0000
0000
0FE0
3878
6038
E018
E008
F800
7FC0
1FF8
01FC
001C
800C
C00C
C01C
F078
7FE0
ENDCHAR
STARTCHAR uni0162
ENCODING 354
SWIDTH 750 0
DWIDTH 24 0
BBX 20 26 2 -6
BITMAP
7FFFE0
70F0E0
60F060
40F030
C0F030
007000
007000
007000
007000
007000
007000
007000
007000
007000
007000
007000
007000
00F000
01F800
0FFF00
004000
008000
00F000
003000
003000
03E000
ENDCHAR
STARTCHAR uni0163
ENCODING 355
SWIDTH 750 0
DWIDTH 24 0
BBX 15 27 4 -6
BITMAP
0600
0E00
0E00
0E00
0E00
0E00
0E00
FFFC
0E00
0E00
0E00
0E00
0E00
0E00
0E00
0E00
0E00
0E00
0F06
07FC
03E0
0100
0300
03C0
00C0
00C0
0780
ENDCHAR
STARTCHAR Tcaron
ENCODING 356
SWIDTH 750 0
DWIDTH 24 0
BBX 20 26 2 0
BITMAP
018C00
00D800
007000
000000
000000
000000
7FFFE0
70F0E0
60F060
40F030
C0F030
007000
007000
007000
007000
007000
007000
007000
007000
007000
007000
007000
007000
00F000
01F800
0FFF00
ENDCHAR
STARTCHAR tcaron
ENCODING 357
SWIDTH 750 0
DWIDTH 24 0
BBX 19 22 0 0
BITMAP
600000
F00000
30E000
10E000
20E000
00E000
00E000
00E000
0FFFC0
00E000
00E000
00E000
00E000
00E000
00E000
00E000
00E000
00E000
00E000
00F060
007FC0
003E00
ENDCHAR
STARTCHAR Tbar
ENCODING 358
SWIDTH 750 0
DWIDTH 24 0
BBX 20 20 2 0
BITMAP
7FFFE0
70F0E0
60F060
40F030
C0F030
007000
007000
007000
007000
07FF00
007000
007000
007000
007000
007000
007000
007000
00F000
01F800
0FFF00
ENDCHAR
STARTCHAR tbar
ENCODING 359
SWIDTH 750 0
DWIDTH 24 0
BBX 15 21 4 0
BITMAP
0600
0E00
0E00
0E00
0E00
0E00
0E00
FFFC
0E00
0E00
0E00
0E00
7FE0
0E00
0E00
0E00
0E00
0E00
0F06
07FC
03E0
ENDCHAR
STARTCHAR Utilde
ENCODING 360
SWIDTH 750 0
DWIDTH 24 0
BBX 20 27 2 0
BITMAP
00C000
01E200
013E00
001C00
000000
000000
000000
FF07F0
3C01C0
3800C0
380080
380080
380080
380080
380080
380080
380080
380080
380080
380080
380080
380080
1C0180
1C0100
0E0300
078E00
01F800
ENDCHAR
STARTCHAR utilde
ENCODING 361
SWIDTH 750 0
DWIDTH 24 0
BBX 18 22 3 0
BITMAP
070800
0F9000
08F000
006000
000000
000000
000000
F81F00
780F00
380700
380700
380700
380700
380700
380700
380700
380700
380700
380F00
1C1F00
1FE7C0
0F8600
ENDCHAR
STARTCHAR Umacron
ENCODING 362
SWIDTH 750 0
DWIDTH 24 0
BBX 20 26 2 0
BITMAP
03FC00
03FC00
000000
000000
000000
000000
FF07F0
3C01C0
3800C0
380080
380080
380080
380080
380080
380080
380080
380080
380080
380080
380080
380080
1C0180
1C0100
0E0300
078E00
01F800
ENDCHAR
STARTCHAR umacron
ENCODING 363
SWIDTH 750 0
DWIDTH 24 0
BBX 18 20 3 0
BITMAP
07F800
07F800
000000
000000
000000
F81F00
780F00
380700
380700
380700
380700
380700
380700
380700
380700
380700
380F00
1C1F00
1FE7C0
0F8600
ENDCHAR
STARTCHAR Ubreve
ENCODING 364
SWIDTH 750 0
DWIDTH 24 0
BBX 20 26 2 0
BITMAP
010200
018600
00FC00
007000
000000
000000
FF07F0
3C01C0
3800C0
380080
380080
380080
380080
380080
380080
380080
380080
380080
380080
380080
380080
1C0180
1C0100
0E0300
078E00
01F800
ENDCHAR
STARTCHAR ubreve
ENCODING 365
SWIDTH 750 0
DWIDTH 24 0
BBX 18 23 3 0
BITMAP
040800
040800
061800
03F000
01E000
000000
000000
000000
F81F00
780F00
380700
380700
380700
380700
380700
380700
380700
380700
380700
380F00
1C1F00
1FE7C0
0F8600
ENDCHAR
STARTCHAR Uring
ENCODING 366
SWIDTH 750 0
DWIDTH 24 0
BBX 20 28 2 0
BITMAP
007000
009800
008800
008800
009800
007000
000000
000000
FF07F0
3C01C0
3800C0
380080
380080
380080
380080
380080
380080
380080
380080
380080
380080
380080
380080
1C0180
1C0100
0E0300
078E00
01F800
ENDCHAR
STARTCHAR uring
ENCODING 367
SWIDTH 750 0
DWIDTH 24 0
BBX 18 23 3 0
BITMAP
01E000
012000
023000
033000
012000
01E000
000000
000000
F81F00
780F00
380700
380700
380700
380700
380700
380700
380700
380700
380700
380F00
1C1F00
1FE7C0
0F8600
ENDCHAR
STARTCHAR Uhungarumlaut
ENCODING 368
SWIDTH 750 0
DWIDTH 24 0
BBX 20 27 2 0
BITMAP
003300
007300
006600
00C400
008800
000000
000000
FF07F0
3C01C0
3800C0
380080
380080
380080
380080
380080
380080
380080
380080
380080
380080
380080
380080
1C0180
1C0100
0E0300
078E00
01F800
ENDCHAR
STARTCHAR uhungarumlaut
ENCODING 369
SWIDTH 750 0
DWIDTH 24 0
BBX 18 15 3 0
BITMAP
F81F00
780F00
380700
380700
380700
380700
380700
380700
380700
380700
380700
380F00
1C1F00
1FE7C0
0F8600
ENDCHAR
STARTCHAR Uogonek
ENCODING 370
SWIDTH 750 0
DWIDTH 24 0
BBX 20 26 2 -6
BITMAP
FF07F0
3C01C0
3800C0
380080
380080
380080
380080
380080
380080
380080
380080
380080
380080
380080
380080
1C0180
1C0100
0E0300
078E00
01FC00
001800
003000
003000
006000
007200
003C00
ENDCHAR
STARTCHAR uogonek
ENCODING 371
SWIDTH 750 0
DWIDTH 24 0
BBX 18 21 3 -6
BITMAP
F81F00
780F00
380700
380700
380700
380700
380700
380700
380700
380700
380700
380F00
1C1F00
1FE7C0
0F8600
000C00
001800
001800
001800
001980
000E00
ENDCHAR
STARTCHAR Wcircumflex
ENCODING 372
SWIDTH 750 0
DWIDTH 24 0
BBX 20 26 2 0
BITMAP
006000
00F000
019C00
000400
000000
000000
FE03F0
7800E0
780040
380040
3800C0
3800C0
386080
1C7080
1C7080
1CF180
1CB900
1CB900
0E9900
0F1F00
0F1F00
0F0E00
0F0E00
060E00
060600
060400
ENDCHAR
STARTCHAR wcircumflex
ENCODING 373
SWIDTH 750 0
DWIDTH 24 0
BBX 20 23 2 0
BITMAP
006000
006000
00F000
019800
030C00
000000
000000
000000
FC03F0
7800E0
780040
3800C0
3870C0
387080
1C7080
1CB980
1C9900
1D9D00
0F0F00
0F0F00
0E0E00
060600
040600
ENDCHAR
STARTCHAR Ycircumflex
ENCODING 374
SWIDTH 750 0
DWIDTH 24 0
BBX 19 26 3 0
BITMAP
00E000
01F000
031800
020000
000000
000000
FE07E0
780380
380300
1C0200
0E0600
0E0C00
070800
039800
039000
01F000
00E000
00E000
00E000
00E000
00E000
00E000
00E000
00E000
01F000
07FC00
ENDCHAR
STARTCHAR ycircumflex
ENCODING 375
SWIDTH 750 0
DWIDTH 24 0
BBX 19 30 3 -7
BITMAP
00C000
00C000
01E000
033000
061800
000000
000000
000000
FE0FE0
780380
380300
1C0300
1C0200
0E0400
0E0400
070800
070800
079800
039000
03F000
01E000
01E000
00C000
00C000
008000
018000
010000
170000
3E0000
3C0000
ENDCHAR
STARTCHAR Ydieresis
ENCODING 376
SWIDTH 750 0
DWIDTH 24 0
BBX 19 26 3 0
BITMAP
030C00
071C00
030C00
000000
000000
000000
FE07E0
780380
380300
1C0200
0E0600
0E0C00
070800
039800
039000
01F000
00E000
00E000
00E000
00E000
00E000
00E000
00E000
00E000
01F000
07FC00
ENDCHAR
STARTCHAR Zacute
ENCODING 377
SWIDTH 750 0
DWIDTH 24 0
BBX 17 27 3 0
BITMAP
002000
007000
01E000
038000
000000
000000
000000
7FFF80
780700
600F00
401E00
401C00
003800
007800
00F000
00E000
01C000
03C000
078000
070000
0F0000
1E0000
1C0080
380180
780180
700F80
FFFF00
ENDCHAR
STARTCHAR zacute
ENCODING 378
SWIDTH 750 0
DWIDTH 24 0
BBX 16 23 4 0
BITMAP
0060
00E0
01C0
0180
0300
0000
0000
0000
7FFE
701E
601C
C038
0070
00E0
01C0
0380
0700
0E00
1E01
3C03
7807
F00E
FFFE
ENDCHAR
STARTCHAR Zdotaccent
ENCODING 379
SWIDTH 750 0
DWIDTH 24 0
BBX 17 26 3 0
BITMAP
01C000
01C000
01C000
000000
000000
000000
7FFF80
780700
600F00
401E00
401C00
003800
007800
00F000
00E000
01C000
03C000
078000
070000
0F0000
1E0000
1C0080
380180
780180
700F80
FFFF00
ENDCHAR
STARTCHAR zdotaccent
ENCODING 380
SWIDTH 750 0
DWIDTH 24 0
BBX 16 22 4 0
BITMAP
0180
03C0
03C0
0180
0000
0000
0000
7FFE
701E
601C
C038
0070
00E0
01C0
0380
0700
0E00
1E01
3C03
7807
F00E
FFFE
ENDCHAR
STARTCHAR Zcaron
ENCODING 381
SWIDTH 750 0
DWIDTH 24 0
BBX 17 26 3 0
BITMAP
061800
01E000
00C000
000000
000000
000000
7FFF80
780700
600F00
401E00
401C00
003800
007800
00F000
00E000
01C000
03C000
078000
070000
0F0000
1E0000
1C0080
380180
780180
700F80
FFFF00
ENDCHAR
STARTCHAR zcaron
ENCODING 382
SWIDTH 750 0
DWIDTH 24 0
BBX 16 23 4 0
BITMAP
0810
0420
02C0
03C0
0180
0000
0000
0000
7FFE
701E
601C
C038
0070
00E0
01C0
0380
0700
0E00
1E01
3C03
7807
F00E
FFFE
ENDCHAR
STARTCHAR longs
ENCODING 383
SWIDTH 750 0
DWIDTH 24 0
BBX 16 22 4 0
BITMAP
00FC
03CF
0707
0603
0E00
0E00
0E00
0E00
7E00
0E00
0E00
0E00
0E00
0E00
0E00
0E00
0E00
0E00
0E00
0E00
1F80
FFFC
ENDCHAR
STARTCHAR uni8788
ENCODING 34696
SWIDTH 750 0
DWIDTH 24 0
BBX 22 22 1 -1
BITMAP
040080
080040
100020
310730
270890
6318D8
4318C8
C3180C
C3180C
C31B0C
C31C8C
C318CC
C318CC
C318CC
C318CC
4318C8
6318D8
230890
378730
100020
080040
040080
ENDCHAR
ENDFONT
